<svg id="Layer_1" xmlns="http://www.w3.org/2000/svg" width="122.333" height="100" viewBox="0 0 122.333 100"><style><![CDATA[
	.st0{fill:#C0E5F9;}
	.st1{fill:#94D5F3;}
	.st2{fill:#00A8C6;}
]]></style><path class="st2" d="M113.52 47.995V55.817H8.812V44.452L0 53.266V64.63h122.333v-7.82zM41.306 84.884c-.083-.173-.166-.464-.25-.872-.525.72-1.238 1.08-2.138 1.08-.94 0-1.723-.312-2.342-.935-.62-.623-.928-1.43-.928-2.42 0-1.176.374-2.086 1.125-2.73.75-.643 1.834-.972 3.246-.984h.892v-.903c0-.505-.086-.86-.26-1.07-.173-.206-.425-.31-.758-.31-.733 0-1.1.43-1.1 1.286h-2.938c0-1.038.388-1.896 1.166-2.57.78-.675 1.765-1.01 2.956-1.01 1.232 0 2.183.317 2.858.957.675.64 1.014 1.558 1.014 2.748v5.285c.014.97.152 1.727.415 2.273v.176h-2.96zm-1.734-2.098c.326 0 .603-.065.83-.196.23-.132.398-.287.51-.467v-2.336h-.707c-.498 0-.893.16-1.18.478s-.43.744-.43 1.276c.002.83.327 1.246.977 1.246zM48.56 73.65l.082 1.112c.665-.88 1.533-1.318 2.606-1.318 1.93 0 2.924 1.353 2.98 4.06v7.38h-2.95V77.72c0-.636-.093-1.1-.283-1.387-.19-.286-.526-.43-1.004-.43-.532 0-.947.274-1.245.82v8.16h-2.948V73.65h2.762zM55.884 78.904c0-1.702.4-3.038 1.204-4.007.803-.97 1.914-1.453 3.332-1.453 1.433 0 2.55.483 3.353 1.453.803.97 1.205 2.312 1.205 4.027v.717c0 1.71-.398 3.046-1.194 4.008-.796.963-1.91 1.443-3.343 1.443-1.438 0-2.556-.483-3.355-1.45-.8-.965-1.2-2.304-1.2-4.02v-.716zm2.948.74c0 2.02.537 3.028 1.61 3.028.988 0 1.52-.844 1.598-2.528l.01-1.243c0-1.03-.142-1.793-.425-2.29-.284-.497-.686-.746-1.205-.746-.498 0-.886.25-1.166.746-.28.497-.423 1.26-.423 2.29v.744zM78.667 84.884c-.083-.173-.166-.464-.25-.872-.525.72-1.238 1.08-2.138 1.08-.942 0-1.72-.312-2.34-.935-.62-.623-.93-1.43-.93-2.42 0-1.176.376-2.086 1.127-2.73s1.83-.972 3.242-.984h.892v-.903c0-.505-.086-.86-.26-1.07-.172-.206-.425-.31-.757-.31-.733 0-1.1.43-1.1 1.286h-2.938c0-1.038.39-1.896 1.17-2.57.778-.675 1.76-1.01 2.95-1.01 1.233 0 2.188.317 2.863.957.674.64 1.01 1.558 1.01 2.748v5.285c.014.97.152 1.727.415 2.273v.176h-2.958zm-1.734-2.098c.325 0 .602-.065.83-.196.23-.132.398-.287.51-.467v-2.336h-.707c-.498 0-.89.16-1.176.478s-.433.744-.433 1.276c0 .83.325 1.246.976 1.246zM85.992 73.65l.083 1.04c.657-.83 1.526-1.246 2.605-1.246 1.12 0 1.914.505 2.377 1.516.644-1.01 1.56-1.516 2.75-1.516 1.966 0 2.973 1.36 3.022 4.08v7.36h-2.94V77.71c0-.65-.09-1.113-.27-1.39-.18-.277-.483-.416-.912-.416-.547 0-.955.336-1.225 1.007l.02.355v7.62h-2.937V77.73c0-.644-.086-1.11-.26-1.398-.172-.286-.48-.43-.923-.43-.505 0-.907.274-1.205.82v8.16H83.24V73.65h2.752zM104.23 84.884c-.082-.173-.166-.464-.25-.872-.525.72-1.238 1.08-2.137 1.08-.94 0-1.723-.312-2.343-.935-.62-.623-.928-1.43-.928-2.42 0-1.176.374-2.086 1.125-2.73s1.834-.972 3.246-.984h.893v-.903c0-.505-.086-.86-.26-1.07-.172-.206-.424-.31-.757-.31-.735 0-1.102.43-1.102 1.286H98.78c0-1.038.387-1.896 1.166-2.57.78-.675 1.765-1.01 2.955-1.01 1.232 0 2.185.317 2.86.957.674.64 1.013 1.558 1.013 2.748v5.285c.014.97.152 1.727.415 2.273v.176h-2.957zm-1.732-2.098c.325 0 .602-.065.83-.196.23-.132.398-.287.51-.467v-2.336h-.707c-.498 0-.892.16-1.18.478-.286.318-.428.744-.428 1.276 0 .83.325 1.246.976 1.246zM19.638 95.64l1.422-7.08h3.062L21.04 99.793h-2.804l-3.093-11.23h3.073l1.422 7.078zM35.185 100c-1.508 0-2.685-.45-3.53-1.35-.844-.9-1.266-2.187-1.266-3.86v-.894c0-1.772.387-3.14 1.162-4.102.775-.962 1.886-1.442 3.332-1.442 1.412 0 2.474.45 3.187 1.353s1.077 2.238 1.09 4.008v1.44h-5.843c.042.84.225 1.455.55 1.844.325.39.827.584 1.505.584.983 0 1.803-.34 2.46-1.026l1.152 1.774c-.36.5-.883.9-1.568 1.21-.684.308-1.428.462-2.23.462zm-1.848-6.893h2.938v-.274c-.014-.676-.125-1.19-.333-1.54-.208-.347-.567-.52-1.08-.52-.512 0-.885.185-1.117.554-.232.37-.366.963-.408 1.78zM48.894 94.862L49.9 88.56h2.814l-2.326 11.23H47.95l-1.588-6.497-1.588 6.498h-2.45L40 88.56h2.823l.996 6.31 1.494-6.31H47.4l1.494 6.302zM58.597 100c-1.51 0-2.685-.45-3.53-1.35-.844-.9-1.266-2.187-1.266-3.86v-.894c0-1.772.388-3.14 1.164-4.102.775-.962 1.886-1.442 3.332-1.442 1.412 0 2.475.45 3.187 1.353.713.902 1.076 2.238 1.09 4.008v1.44H56.73c.04.84.224 1.455.55 1.844.324.39.826.584 1.504.584.983 0 1.803-.34 2.46-1.026l1.152 1.774c-.36.5-.882.9-1.567 1.21-.686.308-1.43.462-2.233.462zm-1.848-6.893h2.937v-.274c-.014-.676-.125-1.19-.332-1.54-.208-.347-.568-.52-1.08-.52-.512 0-.882.185-1.115.554-.23.37-.37.963-.41 1.78zM67.068 92.37c.284-.706.827-1.06 1.63-1.06l.976.084.03-2.906c-.207-.09-.477-.136-.81-.136-.815 0-1.456.474-1.92 1.423l-.082-1.215H64.12v9.155l2.938-2.938M67.057 96.854l-2.937 2.938h2.948"/><g><path class="st2" d="M25.552 91.02v8.813h2.937v-11.75zM33.372 74.752c-.605-.872-1.505-1.308-2.702-1.308-.97 0-1.734.41-2.294 1.234l-.104-1.027h-2.72v15.294l2.94-2.938V83.98c.553.74 1.287 1.11 2.2 1.11 1.197 0 2.097-.47 2.703-1.41.605-.942.91-2.296.91-4.06v-.86c-.016-1.8-.327-3.136-.933-4.008zm-1.997 4.88c0 1.04-.114 1.81-.34 2.3-.224.494-.625.74-1.207.74-.63 0-1.076-.243-1.34-.73v-5.277c.278-.507.717-.76 1.32-.76.566 0 .968.225 1.207.675.238.454.36 1.224.36 2.313v.74z"/></g><g><path class="st2" d="M69.64 77.462c.283-.706.826-1.06 1.63-1.06l.975.084.03-2.907c-.207-.092-.477-.136-.81-.136-.815 0-1.456.475-1.92 1.422l-.082-1.215H66.69v9.157l2.938-2.938M69.628 81.946l-2.938 2.938h2.95"/></g><path class="st1" d="M102.682 26.526l-6.142 6.142L83.31 19.44 68.196 34.558l-6.26-6.26-7.913 7.913-11.457-11.455-10.572 10.57-12.34-12.342-7.902 7.9v10.63l7.902-7.9 12.34 12.343 10.573-10.57L54.022 46.84l7.912-7.912 6.26 6.26L83.312 30.07l13.23 13.228 6.142-6.142 7.9 7.9v-10.63z"/><path class="st2" d="M11.75 52.88h98.832v-7.823l-7.9-7.9-6.142 6.14L83.31 30.07 68.196 45.188l-6.26-6.26-7.913 7.913-11.457-11.455-10.572 10.57-12.34-12.342-7.902 7.9z"/><g><path class="st1" d="M8.813 33.822L0 42.635v10.63l8.813-8.813zM113.52 37.365v10.63l8.813 8.814V46.18z"/></g><g><path class="st0" d="M0 32.005v10.63l8.813-8.813v-10.63zM11.75 20.255v10.63l7.902-7.902 12.34 12.343 10.573-10.57L54.022 36.21l7.912-7.912 6.26 6.26L83.312 19.44l13.23 13.228 6.142-6.142 7.9 7.9v-10.63l-7.9-7.9-6.142 6.143L83.31 8.81 68.196 23.928l-6.26-6.26-7.913 7.914-11.457-11.457-10.572 10.57-12.34-12.342zM113.52 26.736v10.63l8.813 8.813V35.55z"/></g><path class="st2" d="M11.75 20.255V2.938h98.832v20.858l2.938 2.94V0H8.812v23.192l2.94-2.937z"/></svg>