<?xml version="1.0" encoding="utf-8"?>
<!-- Generator: Adobe Illustrator 14.0.0, SVG Export Plug-In . SVG Version: 6.00 Build 43363)  -->
<!DOCTYPE svg PUBLIC "-//W3C//DTD SVG 1.1//EN" "http://www.w3.org/Graphics/SVG/1.1/DTD/svg11.dtd">
<svg version="1.1" xmlns="http://www.w3.org/2000/svg" xmlns:xlink="http://www.w3.org/1999/xlink" x="0px" y="0px" width="300px"
	 height="75px" viewBox="0 0 300 75" enable-background="new 0 0 300 75" xml:space="preserve">
<g id="Background">
	<rect fill="#F9F9F9" width="300" height="75"/>
</g>
<g id="Background__x28_2_x29_">
	<rect fill="#999999" width="300" height="75"/>
</g>
<g id="Layer_1">
	<g>
		<defs>
			<rect id="SVGID_1_" width="300" height="75"/>
		</defs>
		<clipPath id="SVGID_2_">
			<use xlink:href="#SVGID_1_"  overflow="visible"/>
		</clipPath>
		<g clip-path="url(#SVGID_2_)">
			<polygon fill="#D8D8D8" points="23.254,75.017 -12.715,95.783 -12.715,55.982 23.254,35.215 			"/>
			<path fill="#333333" d="M24.54,33v42.749l19.269,11.125V44.126L24.54,33z"/>
			<polygon fill="#333333" points="14.262,38.934 12.977,33.78 18.117,36.747 			"/>
			<g>
				<polygon fill="#333333" points="14.264,62.518 9.124,65.485 9.124,66.96 14.262,63.993 				"/>
				<polygon fill="#333333" points="14.262,65.469 9.124,68.434 9.124,69.906 14.264,66.939 				"/>
				<polygon fill="#333333" points="14.262,68.418 9.124,71.385 9.124,72.855 14.262,69.889 				"/>
				<polygon fill="#333333" points="14.264,71.364 9.124,74.33 9.124,75.803 14.262,72.836 				"/>
				<polygon fill="#333333" points="14.262,50.724 9.124,53.691 9.124,55.168 14.262,52.202 				"/>
				<polygon fill="#333333" points="14.262,56.622 9.124,59.589 9.124,61.064 14.264,58.098 				"/>
				<polygon fill="#333333" points="14.262,59.572 9.124,62.538 9.124,64.011 14.262,61.044 				"/>
				<polygon fill="#333333" points="14.264,53.673 9.124,56.64 9.124,58.115 14.262,55.148 				"/>
				<polygon fill="#333333" points="6.554,58.124 1.416,61.09 1.416,62.565 6.554,59.598 				"/>
				<polygon fill="#333333" points="6.554,55.174 1.416,58.141 1.416,59.618 6.554,56.651 				"/>
				<polygon fill="#333333" points="6.554,61.073 1.416,64.04 1.416,65.514 6.554,62.547 				"/>
				<polygon fill="#333333" points="6.554,49.278 1.416,52.245 1.416,53.72 6.554,50.753 				"/>
				<polygon fill="#333333" points="6.554,52.229 1.416,55.193 1.416,56.669 6.554,53.702 				"/>
				<polygon fill="#333333" points="6.554,46.333 1.416,49.298 1.416,50.773 6.554,47.806 				"/>
				<polygon fill="#333333" points="14.262,74.313 9.124,77.28 9.124,78.752 14.264,75.784 				"/>
				<polygon fill="#333333" points="21.97,40.379 16.832,43.347 16.83,44.819 21.97,41.852 				"/>
				<polygon fill="#333333" points="21.97,49.224 16.832,52.19 16.83,53.664 21.97,50.698 				"/>
				<polygon fill="#333333" points="21.97,52.172 16.832,55.14 16.832,56.614 21.97,53.647 				"/>
				<polygon fill="#333333" points="21.97,46.276 16.83,49.242 16.832,50.72 21.97,47.752 				"/>
				<polygon fill="#333333" points="21.97,55.122 16.83,58.088 16.832,59.56 21.97,56.595 				"/>
				<polygon fill="#333333" points="21.97,37.431 16.832,40.397 16.832,41.871 21.97,38.905 				"/>
				<polygon fill="#333333" points="21.97,43.329 16.832,46.295 16.832,47.768 21.97,44.804 				"/>
				<polygon fill="#333333" points="6.554,64.022 1.416,66.989 1.416,68.46 6.554,65.494 				"/>
				<polygon fill="#333333" points="21.97,69.863 16.832,72.829 16.832,74.302 21.97,71.335 				"/>
				<polygon fill="#333333" points="14.264,44.829 9.124,47.795 9.124,49.271 14.262,46.304 				"/>
				<polygon fill="#333333" points="21.97,58.068 16.832,61.035 16.83,62.511 21.97,59.544 				"/>
				<polygon fill="#333333" points="21.97,66.913 16.832,69.88 16.83,71.352 21.97,68.386 				"/>
				<polygon fill="#333333" points="14.262,41.881 9.124,44.848 9.124,46.324 14.262,43.356 				"/>
				<polygon fill="#333333" points="21.97,61.018 16.832,63.984 16.832,65.456 21.97,62.49 				"/>
				<polygon fill="#333333" points="21.97,63.968 16.83,66.934 16.832,68.406 21.97,65.438 				"/>
				<polygon fill="#333333" points="14.262,47.777 9.124,50.745 9.124,52.22 14.264,49.253 				"/>
				<polygon fill="#333333" points="-6.292,62.592 -11.43,65.558 -11.43,67.035 -6.292,64.067 				"/>
				<polygon fill="#333333" points="-6.292,59.646 -11.43,62.61 -11.43,64.086 -6.292,61.119 				"/>
				<polygon fill="#333333" points="-6.292,65.54 -11.43,68.508 -11.43,69.981 -6.292,67.015 				"/>
				<polygon fill="#333333" points="-6.292,56.696 -11.43,59.661 -11.43,61.137 -6.292,58.17 				"/>
				<polygon fill="#333333" points="0.131,82.472 -5.007,85.438 -5.007,86.909 0.131,83.942 				"/>
				<polygon fill="#333333" points="-6.292,68.49 -11.43,71.456 -11.43,72.931 -6.292,69.964 				"/>
				<polygon fill="#333333" points="-6.292,53.749 -11.43,56.715 -11.43,58.189 -6.292,55.224 				"/>
				<polygon fill="#333333" points="-6.292,80.283 -11.43,83.25 -11.43,84.722 -6.292,81.755 				"/>
				<polygon fill="#333333" points="-6.292,71.439 -11.43,74.406 -11.43,75.877 -6.292,72.91 				"/>
				<polygon fill="#333333" points="-6.292,86.18 -11.43,89.146 -11.43,90.617 -6.292,87.651 				"/>
				<path fill="#333333" d="M14.262,38.934l-1.285-5.155l-23.122,13.35l-1.285,6.637l-2.569,1.484L-14,98l38.54-22.25V33
					L14.262,38.934z M-9.092,47.994l21.017-12.135l0.771,3.979l-22.56,13.024L-9.092,47.994z M23.254,75.017l-35.97,20.767V55.982
					l35.97-20.767V75.017z"/>
				<polygon fill="#333333" points="-6.292,83.23 -11.43,86.197 -11.43,87.668 -6.292,84.701 				"/>
				<polygon fill="#333333" points="-6.292,74.386 -11.43,77.353 -11.43,78.826 -6.292,75.859 				"/>
				<polygon fill="#333333" points="6.554,66.969 1.416,69.936 1.416,71.41 6.554,68.443 				"/>
				<polygon fill="#333333" points="-6.292,77.334 -11.43,80.302 -11.43,81.773 -6.292,78.806 				"/>
				<polygon fill="#333333" points="0.131,79.521 -5.007,82.488 -5.007,83.96 0.131,80.993 				"/>
				<polygon fill="#333333" points="0.131,76.575 -5.007,79.542 -5.007,81.014 0.131,78.047 				"/>
				<polygon fill="#333333" points="6.554,78.763 1.416,81.729 1.416,83.201 6.554,80.234 				"/>
				<polygon fill="#333333" points="0.131,52.986 -5.007,55.953 -5.007,57.428 0.131,54.462 				"/>
				<polygon fill="#333333" points="6.554,69.918 1.416,72.885 1.416,74.356 6.554,71.39 				"/>
				<polygon fill="#333333" points="0.131,55.937 -5.007,58.902 -5.007,60.378 0.131,57.411 				"/>
				<polygon fill="#333333" points="6.554,72.867 1.416,75.834 1.416,77.306 6.554,74.338 				"/>
				<polygon fill="#333333" points="6.554,75.813 1.416,78.78 1.416,80.252 6.554,77.285 				"/>
				<polygon fill="#333333" points="0.131,50.04 -5.007,53.007 -5.007,54.481 0.131,51.515 				"/>
				<polygon fill="#333333" points="0.131,58.882 -5.007,61.849 -5.007,63.327 0.131,60.359 				"/>
				<polygon fill="#333333" points="0.131,67.73 -5.007,70.697 -5.007,72.169 0.131,69.202 				"/>
				<polygon fill="#333333" points="0.131,73.626 -5.007,76.594 -5.007,78.064 0.131,75.098 				"/>
				<polygon fill="#333333" points="0.131,70.678 -5.007,73.645 -5.007,75.118 0.131,72.151 				"/>
				<polygon fill="#333333" points="0.131,64.781 -5.007,67.748 -5.007,69.222 0.131,66.256 				"/>
				<polygon fill="#333333" points="0.131,61.832 -5.007,64.798 -5.007,66.273 0.131,63.306 				"/>
			</g>
			<g>
				<g>
					<path fill="#FFFFFF" d="M26.022,35.569v39.324l16.303,9.411V44.981L26.022,35.569z M34.816,75.785l-1.284-0.74v-1.473
						l1.284,0.74V75.785z M34.816,72.837l-1.284-0.741v-1.475l1.284,0.743V72.837z M34.816,69.891l-1.284-0.742v-1.476l1.284,0.743
						V69.891z M34.816,66.941l-1.284-0.742v-1.474l1.284,0.743V66.941z M34.816,63.993l-1.284-0.741v-1.476l1.284,0.741V63.993z
						 M34.816,61.044l-1.284-0.741v-1.474l1.284,0.741V61.044z M34.816,58.098l-1.284-0.741v-1.478l1.284,0.742V58.098z
						 M34.816,55.148l-1.284-0.742v-1.474l1.284,0.742V55.148z M34.816,52.202l-1.284-0.742v-1.477l1.284,0.742V52.202z
						 M34.816,49.253l-1.284-0.742v-1.473l1.284,0.74V49.253z M34.816,46.304l-1.284-0.743v-1.473l1.284,0.741V46.304z
						 M34.816,43.356l-1.284-0.743v-1.475l1.284,0.742V43.356z"/>
				</g>
			</g>
			<polygon fill="#D8D8D8" points="-9.092,47.994 11.925,35.859 12.696,39.838 -9.864,52.862 			"/>
		</g>
		<g clip-path="url(#SVGID_2_)">
			<polygon fill="#D8D8D8" points="81.646,75.033 64.79,84.766 64.79,29.717 81.646,19.986 			"/>
			<path fill="#333333" d="M64.242,28.931c0-0.414-0.335-0.749-0.749-0.749c-0.413,0-0.748,0.334-0.748,0.749
				c0,0.414,0.335,0.749,0.748,0.749C63.907,29.679,64.242,29.344,64.242,28.931z M102.39,28.182c-0.413,0-0.749,0.334-0.749,0.749
				c0,0.414,0.336,0.749,0.749,0.749c0.415,0,0.748-0.335,0.748-0.749C103.138,28.517,102.805,28.182,102.39,28.182z M82.941,18.498
				c0.415,0,0.749-0.335,0.749-0.749S83.356,17,82.941,17c-0.412,0-0.748,0.335-0.748,0.749S82.529,18.498,82.941,18.498z
				 M80.35,29.66l-2.593,1.497l-0.001,1.488l2.594-1.497V29.66z M77.757,35.621l2.593-1.498v-1.488l-2.593,1.497V35.621z
				 M80.35,26.685l-2.594,1.497v1.488l2.594-1.497V26.685z M77.757,59.424l2.593-1.497v-1.487l-2.593,1.498V59.424z M73.866,34.891
				l2.593-1.497v-1.488l-2.593,1.497V34.891z M77.757,41.572l2.593-1.498v-1.486l-2.593,1.496V41.572z M80.35,35.611l-2.593,1.497
				l-0.001,1.487l2.592-1.497L80.35,35.611z M80.35,51.977v-1.487l-2.594,1.497l0.001,1.487L80.35,51.977z M80.35,53.463
				l-2.593,1.498l-0.001,1.489l2.594-1.497V53.463z M80.35,60.903v-1.487l-2.594,1.498l0.001,1.486L80.35,60.903z M80.35,43.051
				l-0.002-1.488l-2.592,1.497l0.001,1.488L80.35,43.051z M73.866,37.866l2.593-1.497v-1.488l-2.593,1.497V37.866z M80.35,47.513
				l-2.594,1.497v1.49l2.592-1.498L80.35,47.513z M80.348,44.539l-2.592,1.497v1.487l2.592-1.498V44.539z M69.977,57.965
				l2.594-1.497V54.98l-2.594,1.498V57.965z M66.087,60.211l2.594-1.498v-1.486l-2.594,1.497V60.211z M66.087,69.138l2.594-1.497
				v-1.487l-2.594,1.497V69.138z M80.35,62.391l-2.593,1.496l-0.001,1.489l2.592-1.497L80.35,62.391z M66.087,66.16l2.594-1.496
				v-1.487l-2.594,1.497V66.16z M73.866,43.816l2.593-1.496v-1.487l-2.593,1.497V43.816z M66.087,78.063l2.594-1.496v-1.487
				l-2.594,1.497V78.063z M66.087,72.113l2.594-1.498v-1.488l-2.594,1.498V72.113z M69.977,60.941l2.594-1.497v-1.489l-2.594,1.496
				V60.941z M69.977,46.063l2.594-1.497v-1.487l-2.594,1.498V46.063z M69.977,75.817l2.594-1.497v-1.486l-2.594,1.496V75.817z
				 M73.866,61.67l2.593-1.498v-1.486l-2.593,1.497V61.67z M69.977,66.893l2.594-1.498v-1.486l-2.594,1.496V66.893z M69.977,63.915
				l2.594-1.497v-1.486l-2.594,1.496V63.915z M66.087,63.188l2.594-1.498V60.2l-2.594,1.497V63.188z M68.681,39.372l-2.594,1.497
				v1.488l2.594-1.496V39.372z M72.57,40.103L69.977,41.6v1.488l2.594-1.498V40.103z M68.681,36.396l-2.594,1.498v1.488l2.594-1.498
				V36.396z M72.57,66.882l-2.594,1.497v1.488l2.594-1.497V66.882z M72.57,69.858l-2.594,1.497v1.488l2.594-1.497V69.858z
				 M72.57,47.542v-1.488l-2.594,1.497v1.488L72.57,47.542z M72.57,52.004l-2.594,1.498v1.489l2.594-1.497V52.004z M72.57,50.518
				V49.03l-2.594,1.497v1.486L72.57,50.518z M80.35,65.367l-2.593,1.497l-0.001,1.488l2.592-1.497L80.35,65.367z M68.681,72.104
				l-2.594,1.498v1.488l2.594-1.498V72.104z M100.893,28.931c0-0.26,0.084-0.491,0.198-0.703L84.22,18.485
				c-0.261,0.446-0.723,0.761-1.278,0.761c-0.553,0-1.016-0.314-1.274-0.76l-16.875,9.742c0.117,0.212,0.199,0.444,0.199,0.703
				c0,0.828-0.67,1.497-1.498,1.497V87l19.448-11.229L102.39,87V30.428C101.562,30.428,100.893,29.758,100.893,28.931z
				 M81.646,75.033L64.79,84.766V29.717l16.856-9.731V75.033z M90.721,41.582l3.891,2.245v1.487l-3.891-2.246V41.582z
				 M89.424,72.074l-3.889-2.245v-1.487l3.889,2.246V72.074z M89.424,69.1l-3.889-2.246v-1.486l3.889,2.246V69.1z M89.424,66.125
				l-3.889-2.246v-1.488l3.889,2.246V66.125z M89.424,63.148l-3.889-2.245v-1.487l3.889,2.246V63.148z M89.424,60.172l-3.889-2.245
				v-1.487l3.889,2.246V60.172z M89.424,57.199l-3.889-2.246v-1.49l3.889,2.246V57.199z M89.424,54.223l-3.889-2.246v-1.487
				l3.889,2.246V54.223z M89.424,51.246l-3.889-2.245v-1.488l3.889,2.245V51.246z M89.424,48.271l-3.889-2.246v-1.488l3.889,2.246
				V48.271z M89.424,45.297l-3.889-2.246v-1.489l3.889,2.247V45.297z M89.424,42.32l-3.889-2.246v-1.486l3.889,2.245V42.32z
				 M89.424,39.344l-3.889-2.246V35.61l3.889,2.245V39.344z M89.424,36.369l-3.889-2.246v-1.488l3.889,2.246V36.369z M89.424,33.394
				l-3.889-2.246V29.66l3.889,2.246V33.394z M89.424,30.418l-3.889-2.246v-1.488l3.889,2.246V30.418z M94.611,75.068l-3.889-2.245
				v-1.487l3.889,2.246V75.068z M90.723,69.848l-0.002-1.486l3.891,2.246v1.486L90.723,69.848z M90.723,66.873l-0.002-1.488
				l3.891,2.246v1.488L90.723,66.873z M94.611,66.144l-3.889-2.246V62.41l3.889,2.246V66.144z M90.721,60.921l0.002-1.487
				l3.889,2.246v1.486L90.721,60.921z M90.723,57.947l-0.002-1.49l3.891,2.246v1.49L90.723,57.947z M94.611,57.217l-3.889-2.246
				v-1.486l3.889,2.245V57.217z M90.723,51.996v-1.489l3.889,2.246v1.488L90.723,51.996z M94.611,51.266l-3.889-2.246v-1.488
				l3.889,2.246V51.266z M94.611,48.291l-3.891-2.246l0.002-1.488l3.889,2.246V48.291z M90.723,40.092l-0.002-1.486l3.891,2.245
				v1.487L90.723,40.092z M90.721,35.629l3.891,2.246v1.488l-3.889-2.246L90.721,35.629z M90.723,34.143v-1.488l3.889,2.246v1.489
				L90.723,34.143z M94.611,33.413l-3.889-2.246v-1.488l3.889,2.246V33.413z M99.797,78.063l-3.891-2.245V74.33l3.891,2.246V78.063z
				 M99.797,75.088l-3.889-2.246l-0.002-1.486l3.891,2.246V75.088z M99.797,72.113l-3.891-2.246v-1.488l3.891,2.246V72.113z
				 M99.797,69.138l-3.891-2.245v-1.488l3.891,2.246V69.138z M99.797,66.16l-3.891-2.245v-1.487l3.891,2.246V66.16z M99.797,63.188
				l-3.891-2.246v-1.49l3.891,2.246V63.188z M99.797,60.211l-3.891-2.246v-1.486l3.891,2.245V60.211z M99.797,57.235l-3.889-2.245
				l-0.002-1.488l3.891,2.245V57.235z M99.797,54.26l-3.891-2.246l0.002-1.488l3.889,2.246V54.26z M99.797,51.285l-3.891-2.246
				v-1.488l3.891,2.246V51.285z M99.797,48.309l-3.891-2.246v-1.486l3.891,2.245V48.309z M99.797,45.333l-3.891-2.245V41.6
				l3.891,2.245V45.333z M99.797,42.357l-3.891-2.245v-1.489l3.891,2.246V42.357z M99.797,39.383l-3.891-2.246v-1.488l3.891,2.246
				V39.383z M99.797,36.406l-3.891-2.245v-1.489l3.891,2.246V36.406z M68.681,42.348l-2.594,1.497v1.488l2.594-1.497V42.348z
				 M68.681,54.25l-2.594,1.497v1.489l2.594-1.496V54.25z M68.681,45.324l-2.594,1.497v1.487l2.594-1.498V45.324z M68.681,48.299
				l-2.594,1.498v1.488l2.594-1.498V48.299z M68.681,52.763v-1.487l-2.594,1.498v1.486L68.681,52.763z M68.681,33.422l-2.594,1.497
				v1.488l2.594-1.497V33.422z M76.459,45.297v-1.488l-2.594,1.496l0.001,1.488L76.459,45.297z M76.459,46.785l-2.594,1.496v1.487
				l2.594-1.497V46.785z M76.459,54.223v-1.487l-2.594,1.497l0.001,1.486L76.459,54.223z M76.459,49.758l-2.593,1.498l-0.001,1.49
				l2.594-1.498V49.758z M76.459,37.857l-2.593,1.496l-0.001,1.488l2.594-1.497V37.857z M80.348,68.342l-2.592,1.498v1.486
				l2.594-1.497L80.348,68.342z M72.57,37.127l-2.594,1.496v1.489l2.594-1.497V37.127z M76.459,28.931l-2.593,1.497l-0.001,1.488
				l2.594-1.497V28.931z M76.459,72.074v-1.486l-2.594,1.497l0.001,1.487L76.459,72.074z M72.57,31.176l-2.594,1.497v1.488
				l2.594-1.497V31.176z M72.57,34.151l-2.594,1.497v1.488l2.594-1.497V34.151z M76.459,55.709l-2.593,1.497l-0.001,1.489
				l2.594-1.496V55.709z M76.459,63.148v-1.486l-2.594,1.497l0.001,1.487L76.459,63.148z M76.459,64.637l-2.593,1.496l-0.001,1.488
				l2.594-1.496V64.637z M76.459,67.613l-2.593,1.496l-0.001,1.488l2.594-1.496V67.613z"/>
			<polygon fill="#FFFFFF" points="84.038,19.986 100.894,29.717 100.894,84.766 84.038,75.033 			"/>
			<path fill="#333333" d="M82.943,75.771 M90.723,41.582l3.889,2.245v1.487l-3.889-2.246V41.582z M89.426,72.074l-3.891-2.245
				v-1.487l3.891,2.246V72.074z M89.426,69.1l-3.89-2.246l-0.001-1.486l3.891,2.246V69.1z M89.426,66.125l-3.891-2.246v-1.488
				l3.891,2.246V66.125z M89.426,63.148l-3.891-2.245v-1.487l3.891,2.246V63.148z M89.426,60.172l-3.891-2.245v-1.487l3.891,2.246
				V60.172z M89.426,57.199l-3.891-2.246v-1.49l3.891,2.246V57.199z M89.426,54.223l-3.891-2.246v-1.487l3.891,2.246V54.223z
				 M89.426,51.246l-3.89-2.245l-0.001-1.488l3.891,2.245V51.246z M89.426,48.271l-3.891-2.246l0.001-1.488l3.89,2.246V48.271z
				 M89.426,45.297l-3.891-2.246v-1.489l3.891,2.247V45.297z M89.426,42.32l-3.891-2.246v-1.486l3.891,2.245V42.32z M89.426,39.344
				l-3.891-2.246V35.61l3.891,2.245V39.344z M89.426,36.369l-3.891-2.246v-1.488l3.891,2.246V36.369z M89.426,33.394l-3.891-2.246
				V29.66l3.891,2.246V33.394z M89.426,30.418l-3.891-2.246v-1.488l3.891,2.246V30.418z M94.611,75.068l-3.889-2.245v-1.487
				l3.889,2.246V75.068z M90.723,69.848v-1.486l3.889,2.246v1.486L90.723,69.848z M90.723,66.873v-1.488l3.889,2.246v1.488
				L90.723,66.873z M94.611,66.144l-3.889-2.246V62.41l3.889,2.246V66.144z M90.723,60.921v-1.487l3.889,2.246v1.486L90.723,60.921z
				 M90.723,57.947v-1.49l3.889,2.246v1.49L90.723,57.947z M94.611,57.217l-3.889-2.246v-1.486l3.889,2.245V57.217z M90.723,51.996
				v-1.489l3.889,2.246v1.488L90.723,51.996z M94.611,51.266l-3.889-2.246v-1.488l3.889,2.246V51.266z M94.611,48.291l-3.889-2.246
				v-1.488l3.889,2.246V48.291z M90.723,40.092v-1.486l3.889,2.245v1.487L90.723,40.092z M90.723,35.629l3.889,2.246v1.488
				l-3.889-2.246V35.629z M90.723,34.143v-1.488l3.889,2.246v1.489L90.723,34.143z M94.611,33.413l-3.889-2.246v-1.488l3.889,2.246
				V33.413z M99.799,78.063l-3.891-2.245V74.33l3.891,2.246V78.063z M99.799,75.088l-3.89-2.246l-0.001-1.486l3.891,2.246V75.088z
				 M99.799,72.113l-3.891-2.246v-1.488l3.891,2.246V72.113z M99.799,69.138l-3.891-2.245v-1.488l3.891,2.246V69.138z M99.799,66.16
				l-3.891-2.245v-1.487l3.891,2.246V66.16z M99.799,63.188l-3.891-2.246v-1.49l3.891,2.246V63.188z M99.799,60.211l-3.891-2.246
				v-1.486l3.891,2.245V60.211z M99.799,57.235l-3.89-2.245l-0.001-1.488l3.891,2.245V57.235z M99.799,54.26l-3.891-2.246
				l0.001-1.488l3.89,2.246V54.26z M99.799,51.285l-3.891-2.246v-1.488l3.891,2.246V51.285z M99.799,48.309l-3.891-2.246v-1.486
				l3.891,2.245V48.309z M99.799,45.333l-3.891-2.245V41.6l3.891,2.245V45.333z M99.799,42.357l-3.891-2.245v-1.489l3.891,2.246
				V42.357z M99.799,39.383l-3.891-2.246v-1.488l3.891,2.246V39.383z M99.799,36.406l-3.891-2.245v-1.489l3.891,2.246V36.406z"/>
		</g>
		<rect x="148.495" y="12.05" clip-path="url(#SVGID_2_)" fill="#FFFFFF" width="1.318" height="18.815"/>
		<rect x="149.813" y="12.05" clip-path="url(#SVGID_2_)" fill="#D8D8D8" width="1.318" height="18.815"/>
		<path clip-path="url(#SVGID_2_)" fill="#333333" d="M176.071,44.625v-18.34l-6.852-3.955l0.002-1.31l-2.817-1.626l-2.597-5.933
			l-7.507,1.409l-5.346-3.085v0.009v0l-1.142-0.659l-1.142,0.659v-0.009l-5.379,3.106l-7.517-1.41l-2.56,5.917l-2.81,1.624v1.309
			l-6.852,3.955v18.341l-1.141,0.659v45.85l27.398-15.819l27.398,15.819v-45.85L176.071,44.625z M149.813,29.465l-1.142,0.659
			V13.102l1.142-0.658l1.142,0.658v17.022L149.813,29.465z"/>
		<polygon clip-path="url(#SVGID_2_)" fill="#333333" points="147.531,32.093 147.531,13.753 142.947,16.4 136.097,15.115 
			136.097,15.116 136.097,15.115 133.831,20.353 131.548,21.67 131.548,22.981 124.699,26.936 124.699,45.275 123.556,45.934 
			123.557,89.165 124.699,88.506 147.531,75.324 148.672,74.665 148.672,31.434 		"/>
		<polygon clip-path="url(#SVGID_2_)" fill="#FFFFFF" points="138.397,17.716 140.681,16.397 140.68,17.708 142.947,16.4 
			136.097,15.115 136.097,15.116 		"/>
		<g clip-path="url(#SVGID_2_)">
			<polygon fill="#D8D8D8" points="125.84,30.206 126.981,29.547 126.981,26.927 125.84,27.586 			"/>
			<polygon fill="#D8D8D8" points="129.265,28.229 130.407,27.57 130.407,24.95 129.264,25.609 			"/>
			<polygon fill="#D8D8D8" points="125.84,34.137 126.981,33.478 126.981,30.857 125.84,31.517 			"/>
			<polygon fill="#D8D8D8" points="129.265,32.159 130.407,31.5 130.407,28.88 129.264,29.54 			"/>
			<polygon fill="#D8D8D8" points="125.84,38.066 126.981,37.408 126.981,34.788 125.84,35.447 			"/>
			<polygon fill="#D8D8D8" points="129.265,36.09 130.407,35.43 130.407,32.811 129.265,33.47 			"/>
			<polygon fill="#D8D8D8" points="125.84,41.996 126.981,41.338 126.981,38.717 125.84,39.377 			"/>
			<polygon fill="#D8D8D8" points="129.264,40.02 130.407,39.359 130.407,36.74 129.264,37.399 			"/>
			<polygon fill="#D8D8D8" points="141.823,20.979 142.964,20.319 142.964,17.7 141.823,18.359 			"/>
			<polygon fill="#D8D8D8" points="145.247,16.382 145.247,19.001 146.39,18.342 146.39,15.723 			"/>
			<polygon fill="#D8D8D8" points="141.823,24.909 142.964,24.25 142.964,21.63 141.823,22.289 			"/>
			<polygon fill="#D8D8D8" points="145.247,22.932 146.39,22.272 146.39,19.653 145.247,20.312 			"/>
			<polygon fill="#D8D8D8" points="141.823,28.839 142.964,28.18 142.964,25.56 141.823,26.219 			"/>
			<polygon fill="#D8D8D8" points="145.247,26.862 146.39,26.203 146.39,23.583 145.247,24.242 			"/>
			<polygon fill="#D8D8D8" points="141.823,32.769 142.964,32.109 142.964,29.49 141.823,30.149 			"/>
			<polygon fill="#D8D8D8" points="145.247,30.792 146.388,30.132 146.388,27.513 145.247,28.172 			"/>
			<polygon fill="#D8D8D8" points="141.823,36.699 142.964,36.04 142.964,33.42 141.823,34.079 			"/>
			<polygon fill="#D8D8D8" points="145.247,34.722 146.388,34.063 146.388,31.443 145.247,32.102 			"/>
			<polygon fill="#D8D8D8" points="141.823,40.629 142.964,39.971 142.964,37.35 141.823,38.01 			"/>
			<polygon fill="#D8D8D8" points="145.247,38.652 146.39,37.992 146.388,35.373 145.247,36.032 			"/>
		</g>
		<path clip-path="url(#SVGID_2_)" fill="#D8D8D8" d="M140.681,43.907v-15.72v-5.239l-0.001-5.24l-2.282,1.318v2.62l-4.566,2.637
			v-2.62l-2.283,1.318v5.24v5.239v7.86l-7.992,4.613l0.001,7.861h-0.001l0.001,35.37l25.115-14.5V39.293L140.681,43.907z
			 M133.831,26.903l4.566-2.636l0.001,5.239l-4.567,2.637V26.903z M129.264,45.26l2.284-1.318v2.619l-2.284,1.318V45.26z
			 M124.699,47.896l2.282-1.318v2.619l-2.282,1.318V47.896z M126.981,80.637l-2.282,1.318v-2.619l2.282-1.318V80.637z
			 M126.981,72.777l-2.282,1.318v-2.621l2.282-1.318V72.777z M126.981,64.918l-2.282,1.317v-2.62l2.282-1.318V64.918z
			 M126.981,57.057l-2.282,1.318v-2.619l2.282-1.318V57.057z M131.548,78l-2.284,1.318l0.001-2.619l2.283-1.318V78z M131.548,70.141
			l-2.284,1.318v-2.621l2.284-1.318V70.141z M131.548,62.281l-2.284,1.318l0.001-2.62l2.283-1.318V62.281z M131.548,54.42
			l-2.284,1.318v-2.619l2.284-1.318V54.42z M142.964,71.409l-2.284,1.318l0.001-2.62l2.283-1.318V71.409z M142.964,63.551
			l-2.284,1.317l0.001-2.62l2.283-1.318V63.551z M142.964,55.689l-2.284,1.318l0.001-2.619l2.283-1.318V55.689z M142.964,47.829
			l-2.284,1.318l0.001-2.619l2.283-1.318V47.829z M147.531,68.773l-2.284,1.317v-2.62l2.284-1.317V68.773z M147.531,60.914
			l-2.284,1.318v-2.621l2.284-1.318V60.914z M147.531,53.053l-2.284,1.318v-2.619l2.284-1.318V53.053z M147.531,45.193l-2.284,1.317
			v-2.618l2.284-1.318V45.193z"/>
		<polygon clip-path="url(#SVGID_2_)" fill="#333333" points="174.928,45.275 174.93,26.937 168.079,22.982 168.079,21.671 
			165.796,20.353 163.494,15.095 156.646,16.38 152.096,13.754 152.096,32.093 150.955,31.435 150.955,74.665 152.096,75.324 
			174.928,88.506 176.071,89.165 176.071,45.936 		"/>
		<polygon clip-path="url(#SVGID_2_)" fill="#D8D8D8" points="158.947,16.398 161.229,17.717 163.494,15.095 156.646,16.38 
			158.947,17.709 		"/>
		<g clip-path="url(#SVGID_2_)">
			<polygon fill="#FFFFFF" points="153.237,18.342 154.38,19.001 154.38,16.382 153.239,15.723 			"/>
			<polygon fill="#FFFFFF" points="156.663,20.319 157.804,20.979 157.804,18.359 156.663,17.7 			"/>
			<polygon fill="#FFFFFF" points="153.237,22.272 154.38,22.932 154.38,20.312 153.239,19.653 			"/>
			<polygon fill="#FFFFFF" points="156.663,24.25 157.804,24.909 157.804,22.289 156.663,21.63 			"/>
			<polygon fill="#FFFFFF" points="153.237,26.203 154.38,26.862 154.38,24.242 153.237,23.583 			"/>
			<polygon fill="#FFFFFF" points="156.663,28.18 157.804,28.839 157.804,26.219 156.663,25.56 			"/>
			<polygon fill="#FFFFFF" points="153.239,30.133 154.38,30.792 154.38,28.172 153.239,27.513 			"/>
			<polygon fill="#FFFFFF" points="156.663,32.11 157.804,32.77 157.804,30.149 156.663,29.49 			"/>
			<polygon fill="#FFFFFF" points="169.22,27.57 170.363,28.229 170.363,25.609 169.22,24.95 			"/>
			<polygon fill="#FFFFFF" points="172.646,26.927 172.646,29.547 173.787,30.206 173.787,27.586 			"/>
			<polygon fill="#FFFFFF" points="169.22,31.5 170.363,32.159 170.363,29.54 169.22,28.88 			"/>
			<polygon fill="#FFFFFF" points="172.646,33.478 173.787,34.137 173.787,31.517 172.646,30.857 			"/>
			<polygon fill="#FFFFFF" points="169.22,35.43 170.363,36.09 170.363,33.47 169.22,32.811 			"/>
			<polygon fill="#FFFFFF" points="172.646,37.408 173.787,38.066 173.787,35.447 172.646,34.788 			"/>
			<polygon fill="#FFFFFF" points="169.222,39.36 170.363,40.02 170.363,37.399 169.222,36.74 			"/>
			<polygon fill="#FFFFFF" points="172.646,41.338 173.787,41.997 173.787,39.377 172.646,38.717 			"/>
			<polygon fill="#FFFFFF" points="153.239,34.063 154.38,34.722 154.38,32.102 153.239,31.443 			"/>
			<polygon fill="#FFFFFF" points="156.663,36.041 157.804,36.699 157.804,34.079 156.663,33.42 			"/>
			<polygon fill="#FFFFFF" points="153.239,37.993 154.38,38.652 154.38,36.032 153.239,35.373 			"/>
			<polygon fill="#FFFFFF" points="156.663,39.971 157.804,40.63 157.804,38.01 156.663,37.35 			"/>
		</g>
		<path clip-path="url(#SVGID_2_)" fill="#FFFFFF" d="M168.079,41.321v-7.86v-5.24v-5.239l-2.283-1.318v2.62l-4.566-2.636v-2.62
			l-2.282-1.318v5.239l-0.001,5.24v15.72l-7.991-4.613v35.37l25.116,14.5v-35.37l0,0v-7.859L168.079,41.321z M154.38,70.091
			l-2.284-1.317v-2.619l2.284,1.318V70.091z M154.38,62.232l-2.284-1.318v-2.62l2.284,1.318V62.232z M154.38,54.371l-2.284-1.318
			v-2.618l2.284,1.318V54.371z M154.38,46.512l-2.284-1.318v-2.619l2.284,1.318V46.512z M158.947,72.728l-2.284-1.318v-2.618
			l2.284,1.318V72.728z M158.947,64.868l-2.284-1.317V60.93l2.284,1.318V64.868z M158.947,57.008l-2.284-1.318v-2.618l2.284,1.318
			V57.008z M158.947,49.147l-2.284-1.317v-2.62l2.284,1.318V49.147z M170.363,79.318L168.079,78v-2.618l2.284,1.318V79.318z
			 M170.363,71.459l-2.284-1.318v-2.619l2.284,1.318V71.459z M170.363,63.6l-2.284-1.318v-2.619l2.284,1.318V63.6z M170.363,55.738
			l-2.284-1.318v-2.618l2.284,1.318V55.738z M174.93,81.955l-2.284-1.318v-2.618l2.282,1.318L174.93,81.955z M174.93,74.096
			l-2.284-1.318v-2.619l2.282,1.318L174.93,74.096z M174.93,66.235l-2.284-1.317v-2.619l2.282,1.318L174.93,66.235z M174.93,58.375
			l-2.284-1.318v-2.618l2.282,1.318L174.93,58.375z M172.646,46.578l2.284,1.318v2.619l-2.284-1.318V46.578z M168.079,43.941
			l2.284,1.318v2.62l-2.284-1.317V43.941z M161.229,24.267l4.566,2.636v5.24l-4.566-2.636V24.267z"/>
		<g clip-path="url(#SVGID_2_)">
			<g>
				<polygon fill="#333333" points="232.479,76.396 232.48,36.672 235.672,38.516 235.672,37.095 238.863,38.939 238.863,37.519 
					246.313,41.82 246.313,43.238 249.504,45.082 249.506,46.502 252.697,48.344 252.697,88.07 				"/>
				<polygon fill="#FFFFFF" points="248.441,47.305 248.441,45.887 245.249,44.045 245.248,42.625 239.928,39.553 239.929,40.973 
					236.736,39.129 236.736,40.547 233.545,38.705 233.543,75.594 251.633,86.037 251.633,49.148 				"/>
				<g>
					<polygon fill="#333333" points="235.672,44.189 237.8,45.418 237.801,42.58 235.672,41.352 					"/>
					<polygon fill="#333333" points="247.377,48.109 247.377,50.947 249.504,52.176 249.506,49.338 					"/>
					<polygon fill="#333333" points="235.672,48.445 237.801,49.674 237.801,46.838 235.672,45.609 					"/>
					<polygon fill="#333333" points="247.377,55.203 249.506,56.432 249.506,53.596 247.377,52.367 					"/>
					<polygon fill="#333333" points="235.672,52.703 237.801,53.932 237.8,51.094 235.672,49.865 					"/>
					<polygon fill="#333333" points="247.377,59.461 249.506,60.689 249.504,57.852 247.377,56.623 					"/>
					<polygon fill="#333333" points="235.672,56.959 237.8,58.188 237.801,55.35 235.672,54.121 					"/>
					<polygon fill="#333333" points="247.377,63.717 249.504,64.945 249.506,62.107 247.377,60.879 					"/>
					<polygon fill="#333333" points="235.672,61.215 237.801,62.443 237.8,59.605 235.672,58.377 					"/>
					<polygon fill="#333333" points="247.377,67.973 249.506,69.201 249.504,66.363 247.377,65.135 					"/>
					<polygon fill="#333333" points="235.672,65.473 237.801,66.701 237.801,63.861 235.672,62.633 					"/>
					<polygon fill="#333333" points="247.377,72.23 249.506,73.459 249.504,70.619 247.377,69.391 					"/>
					<polygon fill="#333333" points="235.672,69.727 237.801,70.955 237.801,68.119 235.672,66.891 					"/>
					<polygon fill="#333333" points="247.377,76.484 249.504,77.713 249.506,74.877 247.377,73.648 					"/>
					<polygon fill="#333333" points="235.672,73.984 237.801,75.213 237.8,72.375 235.672,71.146 					"/>
					<polygon fill="#333333" points="247.377,80.742 249.506,81.971 249.504,79.133 247.377,77.904 					"/>
				</g>
			</g>
			<polygon fill="#333333" points="218.646,54.678 211.197,50.377 211.197,46.119 218.646,50.422 			"/>
			<g>
				<polygon fill="#333333" points="197.364,96.672 197.364,56.945 205.877,52.031 205.877,49.191 211.197,46.121 211.197,48.959 
					232.479,36.672 232.479,76.398 				"/>
				<polygon fill="#D8D8D8" points="210.134,50.992 210.134,48.154 206.941,49.998 206.941,52.834 198.429,57.75 198.43,94.637 
					231.415,75.592 231.416,38.705 				"/>
				<g>
					<polygon fill="#333333" points="200.557,60.777 206.941,57.092 206.941,52.834 200.557,56.521 					"/>
					<polygon fill="#333333" points="210.134,50.992 210.134,55.248 229.287,44.189 229.287,39.934 					"/>
					<polygon fill="#333333" points="208.005,56.477 209.07,55.863 209.07,53.023 208.005,53.639 					"/>
					<polygon fill="#333333" points="208.005,60.732 209.07,60.117 209.07,57.281 208.005,57.896 					"/>
					<polygon fill="#333333" points="208.006,64.99 209.07,64.375 209.07,61.537 208.006,62.15 					"/>
					<polygon fill="#333333" points="208.005,69.244 209.07,68.631 209.07,65.793 208.005,66.408 					"/>
					<polygon fill="#333333" points="208.005,73.502 209.07,72.887 209.07,70.051 208.005,70.664 					"/>
					<polygon fill="#333333" points="208.005,77.758 209.07,77.145 209.07,74.305 208.005,74.92 					"/>
					<polygon fill="#333333" points="208.006,82.014 209.07,81.398 209.07,78.563 208.006,79.178 					"/>
					<polygon fill="#333333" points="208.005,86.271 209.069,85.656 209.07,82.82 208.005,83.434 					"/>
					<polygon fill="#333333" points="200.557,65.033 201.621,64.418 201.621,61.582 200.557,62.195 					"/>
					<polygon fill="#333333" points="200.557,69.289 201.621,68.676 201.621,65.836 200.557,66.451 					"/>
					<polygon fill="#333333" points="200.557,73.545 201.621,72.93 201.621,70.094 200.557,70.709 					"/>
					<polygon fill="#333333" points="200.557,77.803 201.621,77.188 201.621,74.352 200.557,74.965 					"/>
					<polygon fill="#333333" points="200.557,82.059 201.621,81.445 201.621,78.605 200.557,79.221 					"/>
					<polygon fill="#333333" points="200.557,86.314 201.621,85.699 201.621,82.863 200.557,83.477 					"/>
					<polygon fill="#333333" points="200.557,90.57 201.621,89.957 201.621,87.121 200.557,87.734 					"/>
					<polygon fill="#333333" points="228.223,49.061 229.286,48.445 229.287,45.609 228.223,46.223 					"/>
					<polygon fill="#333333" points="228.223,53.316 229.287,52.703 229.287,49.865 228.223,50.48 					"/>
					<polygon fill="#333333" points="228.223,57.572 229.287,56.957 229.287,54.121 228.223,54.734 					"/>
					<polygon fill="#333333" points="228.223,61.828 229.287,61.215 229.287,58.379 228.223,58.992 					"/>
					<polygon fill="#333333" points="228.223,66.086 229.287,65.473 229.286,62.633 228.223,63.248 					"/>
					<polygon fill="#333333" points="228.223,70.342 229.287,69.727 229.287,66.891 228.223,67.504 					"/>
					<polygon fill="#333333" points="228.223,74.598 229.287,73.984 229.287,71.146 228.223,71.762 					"/>
					<polygon fill="#333333" points="203.75,63.189 205.877,61.961 205.877,59.125 203.75,60.354 					"/>
					<polygon fill="#333333" points="203.75,67.447 205.877,66.219 205.877,63.379 203.75,64.607 					"/>
					<polygon fill="#333333" points="203.749,71.701 205.877,70.473 205.877,67.637 203.75,68.865 					"/>
					<polygon fill="#333333" points="203.75,75.959 205.877,74.73 205.877,71.895 203.75,73.123 					"/>
					<polygon fill="#333333" points="203.75,80.217 205.877,78.988 205.877,76.148 203.75,77.377 					"/>
					<polygon fill="#333333" points="203.75,84.471 205.877,83.242 205.877,80.406 203.75,81.635 					"/>
					<polygon fill="#333333" points="203.749,88.729 205.877,87.5 205.877,84.662 203.75,85.891 					"/>
					<polygon fill="#333333" points="211.197,58.889 213.326,57.66 213.326,54.824 211.197,56.053 					"/>
					<polygon fill="#333333" points="211.197,63.146 213.326,61.918 213.326,59.078 211.199,60.307 					"/>
					<polygon fill="#333333" points="211.197,67.4 213.326,66.172 213.326,63.336 211.197,64.564 					"/>
					<polygon fill="#333333" points="211.197,71.658 213.326,70.43 213.326,67.594 211.197,68.822 					"/>
					<polygon fill="#333333" points="211.197,75.916 213.326,74.688 213.326,71.848 211.197,73.076 					"/>
					<polygon fill="#333333" points="211.197,80.17 213.326,78.941 213.326,76.105 211.199,77.334 					"/>
					<polygon fill="#333333" points="211.197,84.428 213.326,83.199 213.326,80.363 211.197,81.592 					"/>
					<polygon fill="#333333" points="215.455,56.432 217.581,55.203 217.582,52.367 215.455,53.596 					"/>
					<polygon fill="#333333" points="215.455,60.689 217.582,59.461 217.581,56.621 215.455,57.85 					"/>
					<polygon fill="#333333" points="215.454,64.943 217.581,63.715 217.582,60.879 215.454,62.107 					"/>
					<polygon fill="#333333" points="215.454,69.201 217.582,67.973 217.582,65.137 215.455,66.365 					"/>
					<polygon fill="#333333" points="215.455,73.459 217.582,72.23 217.582,69.391 215.455,70.619 					"/>
					<polygon fill="#333333" points="215.455,77.713 217.582,76.484 217.582,73.648 215.455,74.877 					"/>
					<polygon fill="#333333" points="215.454,81.971 217.581,80.742 217.582,77.904 215.454,79.133 					"/>
					<polygon fill="#333333" points="219.71,53.975 221.838,52.746 221.838,49.91 219.71,51.139 					"/>
					<polygon fill="#333333" points="219.71,58.232 221.838,57.004 221.838,54.164 219.71,55.393 					"/>
					<polygon fill="#333333" points="219.71,62.486 221.838,61.258 221.838,58.422 219.711,59.65 					"/>
					<polygon fill="#333333" points="219.71,66.744 221.84,65.516 221.838,62.678 219.71,63.906 					"/>
					<polygon fill="#333333" points="219.71,71 221.838,69.771 221.838,66.934 219.71,68.162 					"/>
					<polygon fill="#333333" points="219.71,75.256 221.838,74.027 221.838,71.191 219.71,72.42 					"/>
					<polygon fill="#333333" points="219.71,79.514 221.838,78.285 221.838,75.447 219.71,76.676 					"/>
					<polygon fill="#333333" points="223.966,51.518 226.095,50.289 226.096,47.451 223.967,48.68 					"/>
					<polygon fill="#333333" points="223.967,55.773 226.096,54.545 226.095,51.707 223.967,52.936 					"/>
					<polygon fill="#333333" points="223.967,60.029 226.095,58.801 226.096,55.963 223.967,57.193 					"/>
					<polygon fill="#333333" points="223.967,64.287 226.096,63.057 226.095,60.221 223.967,61.449 					"/>
					<polygon fill="#333333" points="223.967,68.543 226.095,67.314 226.095,64.477 223.966,65.705 					"/>
					<polygon fill="#333333" points="223.967,72.799 226.095,71.57 226.096,68.732 223.967,69.961 					"/>
					<polygon fill="#333333" points="223.967,77.055 226.095,75.826 226.095,72.99 223.967,74.219 					"/>
				</g>
			</g>
		</g>
	</g>
</g>
</svg>
