<svg xmlns="http://www.w3.org/2000/svg" xmlns:xlink="http://www.w3.org/1999/xlink" width="300" height="75" viewBox="0 0 300 75"><path fill="#F9F9F9" d="M0 0h300v75H0z"/><path fill="#999" d="M0 0h300v75H0z"/><defs><path id="a" d="M0 0h300v75H0z"/></defs><clipPath id="b"><use xlink:href="#a" overflow="visible"/></clipPath><g clip-path="url(#b)"><path fill="#D8D8D8" d="M23.254 75.017l-35.97 20.766v-39.8l35.97-20.768"/><path fill="#333" d="M24.54 33v42.75l19.27 11.124V44.126L24.54 33zM14.262 38.934l-1.285-5.154 5.14 2.967"/><g fill="#333"><path d="M14.264 62.518l-5.14 2.967v1.475l5.138-2.967M14.262 65.47l-5.138 2.964v1.472l5.14-2.967M14.262 68.418l-5.138 2.967v1.47l5.138-2.966M14.264 71.364l-5.14 2.966v1.473l5.138-2.967M14.262 50.724L9.124 53.69v1.478l5.138-2.966M14.262 56.622L9.124 59.59v1.474l5.14-2.966M14.262 59.572l-5.138 2.966v1.473l5.138-2.966M14.264 53.673l-5.14 2.967v1.475l5.138-2.967M6.554 58.124L1.416 61.09v1.475l5.138-2.967M6.554 55.174L1.416 58.14v1.478l5.138-2.967M6.554 61.073L1.416 64.04v1.474l5.138-2.967M6.554 49.278l-5.138 2.967v1.475l5.138-2.967M6.554 52.23l-5.138 2.963v1.476L6.554 53.7M6.554 46.333l-5.138 2.965v1.475l5.138-2.967M14.262 74.313L9.124 77.28v1.472l5.14-2.968M21.97 40.38l-5.138 2.967-.002 1.472 5.14-2.968M21.97 49.224l-5.138 2.966-.002 1.474 5.14-2.966M21.97 52.172l-5.138 2.968v1.474l5.138-2.967M21.97 46.276l-5.14 2.966.002 1.478 5.138-2.968M21.97 55.122l-5.14 2.966.002 1.472 5.138-2.965M21.97 37.43l-5.138 2.967v1.474l5.138-2.965M21.97 43.33l-5.138 2.965v1.473l5.138-2.964M6.554 64.022L1.416 66.99v1.47l5.138-2.966M21.97 69.863l-5.138 2.966V74.3l5.138-2.967M14.264 44.83l-5.14 2.965v1.476l5.138-2.966M21.97 58.068l-5.138 2.967-.002 1.476 5.14-2.966M21.97 66.913l-5.138 2.967-.002 1.472 5.14-2.966M14.262 41.88L9.124 44.85v1.476l5.138-2.968M21.97 61.018l-5.138 2.966v1.472l5.138-2.966M21.97 63.968l-5.14 2.966.002 1.472 5.138-2.968M14.262 47.777l-5.138 2.968v1.475l5.14-2.967M-6.292 62.592l-5.138 2.966v1.477l5.138-2.968M-6.292 59.646l-5.138 2.964v1.476l5.138-2.967M-6.292 65.54l-5.138 2.968v1.473l5.138-2.965M-6.292 56.696l-5.138 2.965v1.477l5.138-2.967M.13 82.472l-5.137 2.966v1.47L.13 83.943M-6.292 68.49l-5.138 2.966v1.475l5.138-2.966M-6.292 53.75l-5.138 2.965v1.474l5.138-2.966M-6.292 80.283l-5.138 2.967v1.472l5.138-2.967M-6.292 71.44l-5.138 2.966v1.47l5.138-2.966M-6.292 86.18l-5.138 2.966v1.47l5.138-2.965"/><path d="M14.262 38.934l-1.285-5.155-23.122 13.35-1.285 6.636L-14 55.25V98l38.54-22.25V33l-10.278 5.934zm-23.354 9.06L11.925 35.86l.77 3.978-22.56 13.024.773-4.868zm32.346 27.023l-35.97 20.767V55.982l35.97-20.767v39.802z"/><path d="M-6.292 83.23l-5.138 2.967v1.47l5.138-2.966M-6.292 74.386l-5.138 2.967v1.473l5.138-2.967M6.554 66.97l-5.138 2.966v1.474l5.138-2.967M-6.292 77.334l-5.138 2.968v1.47l5.138-2.966M.13 79.52l-5.137 2.968v1.472L.13 80.993M.13 76.575l-5.137 2.967v1.472L.13 78.047M6.554 78.763L1.416 81.73v1.47l5.138-2.966M.13 52.986l-5.137 2.967v1.475L.13 54.462M6.554 69.918l-5.138 2.967v1.47l5.138-2.965M.13 55.937l-5.137 2.965v1.476L.13 57.41M6.554 72.867l-5.138 2.967v1.472l5.138-2.968M6.554 75.813L1.416 78.78v1.472l5.138-2.967M.13 50.04l-5.137 2.967v1.474L.13 51.516M.13 58.882l-5.137 2.967v1.477L.13 60.36M.13 67.73l-5.137 2.967v1.472L.13 69.2M.13 73.626l-5.137 2.968v1.47L.13 75.098M.13 70.678l-5.137 2.967v1.473L.13 72.15M.13 64.78l-5.137 2.968v1.474L.13 66.256M.13 61.832l-5.137 2.966v1.475L.13 63.306"/></g><path fill="#FFF" d="M26.022 35.57v39.323l16.303 9.41V44.982l-16.303-9.41zm8.794 40.215l-1.284-.74v-1.473l1.284.74v1.473zm0-2.948l-1.284-.74V70.62l1.284.744v1.473zm0-2.946l-1.284-.74v-1.477l1.284.743v1.475zm0-2.95l-1.284-.74v-1.475l1.284.743v1.473zm0-2.947l-1.284-.74v-1.477l1.284.74v1.477zm0-2.95l-1.284-.74V58.83l1.284.74v1.474zm0-2.945l-1.284-.74v-1.48l1.284.743V58.1zm0-2.95l-1.284-.742v-1.474l1.284.742v1.474zm0-2.946l-1.284-.742v-1.477l1.284.742v1.477zm0-2.95l-1.284-.74v-1.474l1.284.74v1.475zm0-2.948l-1.284-.743V44.09l1.284.74v1.476zm0-2.948l-1.284-.743v-1.475l1.284.742v1.476z"/><path fill="#D8D8D8" d="M-9.092 47.994L11.925 35.86l.77 3.978-22.56 13.024"/></g><g clip-path="url(#b)"><path fill="#D8D8D8" d="M81.646 75.033L64.79 84.766v-55.05l16.856-9.73"/><path fill="#333" d="M64.242 28.93c0-.413-.335-.748-.75-.748-.412 0-.747.334-.747.75 0 .413.335.748.748.748.414 0 .75-.336.75-.75zm38.148-.748c-.413 0-.75.334-.75.75 0 .413.337.748.75.748.415 0 .748-.335.748-.75 0-.413-.333-.748-.748-.748zm-19.45-9.684c.416 0 .75-.335.75-.75S83.356 17 82.94 17c-.41 0-.747.335-.747.75s.336.748.748.748zM80.35 29.66l-2.593 1.497v1.488l2.593-1.497V29.66zm-2.593 5.96l2.593-1.497v-1.488l-2.593 1.497v1.49zm2.593-8.935l-2.594 1.497v1.488l2.594-1.497v-1.488zm-2.593 32.74l2.593-1.498V56.44l-2.593 1.498v1.486zm-3.89-24.534l2.592-1.496v-1.488l-2.594 1.497v1.488zm3.89 6.682l2.593-1.498v-1.486l-2.593 1.496v1.488zm2.593-5.96l-2.593 1.496v1.487l2.59-1.497.003-1.487zm0 16.365V50.49l-2.594 1.497v1.487l2.594-1.497zm0 1.486l-2.593 1.498v1.49l2.593-1.497v-1.49zm0 7.44v-1.487l-2.594 1.498V62.4l2.594-1.497zm0-17.852l-.002-1.487-2.592 1.497v1.488l2.594-1.497zm-6.484-5.184l2.593-1.497v-1.49l-2.594 1.498v1.488zm6.484 9.647l-2.594 1.497v1.49l2.592-1.498.002-1.49zm-.002-2.974l-2.592 1.496v1.487l2.592-1.498V44.54zm-10.37 13.425l2.593-1.497V54.98l-2.593 1.498v1.487zm-3.89 2.246l2.593-1.497v-1.486l-2.593 1.497v1.487zm0 8.928l2.593-1.497v-1.486l-2.593 1.497v1.488zM80.35 62.39l-2.593 1.497v1.49l2.59-1.498.003-1.49zm-14.263 3.77l2.594-1.496v-1.487l-2.593 1.497v1.486zm7.78-22.344l2.592-1.496v-1.487l-2.594 1.497v1.486zm-7.78 34.247l2.594-1.496V75.08l-2.593 1.497v1.486zm0-5.95l2.594-1.498v-1.488l-2.593 1.498v1.488zm3.89-11.172l2.594-1.496v-1.49l-2.593 1.497v1.49zm0-14.877l2.594-1.497V43.08l-2.593 1.497v1.486zm0 29.754l2.594-1.497v-1.486l-2.593 1.496v1.487zm3.89-14.147l2.592-1.498v-1.486l-2.594 1.497v1.487zm-3.89 5.223l2.594-1.498V63.91l-2.593 1.495v1.488zm0-2.978l2.594-1.497v-1.486l-2.593 1.496v1.487zm-3.89-.727l2.594-1.498V60.2l-2.593 1.497v1.49zm2.594-23.816l-2.593 1.497v1.487l2.594-1.496v-1.488zm3.89.73L69.977 41.6v1.488l2.594-1.498v-1.487zm-3.89-3.706l-2.593 1.498v1.488l2.594-1.498v-1.488zm3.89 30.486l-2.594 1.497v1.487l2.594-1.497v-1.488zm0 2.976l-2.594 1.497v1.488l2.594-1.497v-1.488zm0-22.316v-1.488l-2.594 1.497v1.49l2.594-1.498zm0 4.462l-2.594 1.498v1.49l2.594-1.498v-1.49zm0-1.486V49.03l-2.594 1.497v1.486l2.594-1.495zm7.78 14.85l-2.593 1.496v1.488l2.59-1.497.003-1.488zm-11.67 6.736l-2.593 1.498v1.488l2.594-1.498v-1.488zm32.213-43.173c0-.26.084-.49.198-.702l-16.87-9.743c-.26.446-.723.76-1.278.76-.553 0-1.016-.313-1.274-.76L64.793 28.23c.117.212.2.444.2.703 0 .83-.67 1.498-1.5 1.498V87l19.45-11.23L102.39 87V30.428c-.828 0-1.497-.67-1.497-1.497zM81.646 75.034L64.79 84.766v-55.05l16.856-9.73v55.047zm9.075-33.45l3.892 2.244v1.487l-3.89-2.246v-1.486zm-1.296 30.49l-3.89-2.244V68.34l3.89 2.246v1.486zm0-2.973l-3.89-2.246v-1.486l3.89 2.246V69.1zm0-2.975l-3.89-2.246v-1.49l3.89 2.247v1.488zm0-2.977l-3.89-2.245v-1.487l3.89 2.246v1.486zm0-2.976l-3.89-2.245V56.44l3.89 2.246v1.486zm0-2.973l-3.89-2.247v-1.49l3.89 2.246v1.49zm0-2.977l-3.89-2.246V50.49l3.89 2.246v1.487zm0-2.977L85.534 49v-1.487l3.89 2.245v1.488zm0-2.975l-3.89-2.245v-1.488l3.89 2.246v1.488zm0-2.973l-3.89-2.246v-1.488l3.89 2.247v1.487zm0-2.977l-3.89-2.246v-1.486l3.89 2.245v1.487zm0-2.976l-3.89-2.246V35.61l3.89 2.245v1.49zm0-2.975l-3.89-2.247v-1.488l3.89 2.246v1.49zm0-2.976l-3.89-2.246V29.66l3.89 2.246v1.488zm0-2.976l-3.89-2.246v-1.488l3.89 2.246v1.488zm5.187 44.65l-3.888-2.245v-1.487l3.89 2.246v1.486zm-3.887-5.22l-.002-1.486 3.892 2.246v1.486l-3.89-2.246zm0-2.975l-.002-1.488 3.892 2.246v1.49l-3.89-2.247zm3.888-.73L90.723 63.9V62.41l3.89 2.246v1.488zm-3.89-5.222l.003-1.486 3.89 2.246v1.486L90.72 60.92zm.003-2.973l-.002-1.49 3.892 2.246v1.49l-3.89-2.246zm3.888-.73l-3.888-2.246v-1.485l3.89 2.245v1.487zm-3.887-5.22v-1.49l3.89 2.246v1.488l-3.89-2.244zm3.888-.73l-3.888-2.247v-1.488l3.89 2.246v1.488zm0-2.976l-3.89-2.245.002-1.488 3.89 2.246v1.488zm-3.887-8.198l-.002-1.486 3.892 2.245v1.488l-3.89-2.246zm-.002-4.463l3.892 2.245v1.488l-3.89-2.246V35.63zm.003-1.487v-1.488l3.89 2.246v1.49l-3.89-2.247zm3.888-.73l-3.888-2.246V29.68l3.89 2.245v1.488zm5.187 44.65l-3.89-2.245V74.33l3.89 2.246v1.487zm0-2.975l-3.89-2.246v-1.486l3.89 2.246v1.486zm0-2.975l-3.89-2.246V68.38l3.89 2.245v1.488zm0-2.975l-3.89-2.245v-1.488l3.89 2.246v1.488zm0-2.978l-3.89-2.245v-1.487l3.89 2.246v1.486zm0-2.972l-3.89-2.246v-1.49l3.89 2.246v1.49zm0-2.977l-3.89-2.245V56.48l3.89 2.244v1.487zm0-2.975l-3.89-2.245v-1.488l3.89 2.245v1.488zm0-2.975l-3.89-2.246v-1.488l3.89 2.246v1.488zm0-2.975l-3.89-2.246v-1.49l3.89 2.247v1.488zm0-2.976l-3.89-2.247v-1.486l3.89 2.245v1.487zm0-2.977l-3.89-2.245V41.6l3.89 2.245v1.488zm0-2.976l-3.89-2.245v-1.49l3.89 2.247v1.487zm0-2.974l-3.89-2.246V35.65l3.89 2.245v1.488zm0-2.977l-3.89-2.245v-1.488l3.89 2.246v1.488zM68.68 42.348l-2.593 1.497v1.488l2.594-1.497v-1.488zm0 11.902l-2.593 1.497v1.49l2.594-1.497v-1.49zm0-8.926l-2.593 1.497v1.488l2.594-1.498v-1.486zm0 2.975l-2.593 1.497v1.488l2.594-1.498V48.3zm0 4.463v-1.487l-2.593 1.498v1.486l2.594-1.497zm0-19.34l-2.593 1.496v1.487l2.594-1.497v-1.488zm7.78 11.874V43.81l-2.595 1.495v1.488l2.594-1.496zm0 1.488l-2.595 1.496v1.488l2.594-1.497v-1.485zm0 7.438v-1.487l-2.595 1.497v1.486l2.594-1.497zm0-4.465l-2.594 1.498v1.49l2.593-1.498v-1.49zm0-11.9l-2.594 1.495v1.488l2.593-1.496v-1.487zm3.888 30.484l-2.592 1.498v1.486l2.594-1.497-.002-1.488zM72.57 37.127l-2.594 1.496v1.49l2.594-1.498v-1.488zm3.89-8.196l-2.594 1.498v1.488l2.593-1.497v-1.49zm0 43.144v-1.486l-2.595 1.497v1.487l2.594-1.498zm-3.89-40.898l-2.594 1.497v1.488l2.594-1.496v-1.488zm0 2.975l-2.594 1.498v1.488l2.594-1.497v-1.49zm3.89 21.56l-2.594 1.496v1.49l2.593-1.497v-1.49zm0 7.438v-1.486l-2.595 1.497v1.486l2.594-1.498zm0 1.49l-2.594 1.495v1.488l2.593-1.495v-1.488zm0 2.975l-2.594 1.496v1.487l2.593-1.496v-1.487z"/><path fill="#FFF" d="M84.038 19.986l16.856 9.73v55.05l-16.856-9.733"/><path fill="#333" d="M90.723 41.581999999999994l3.89 2.245v1.487l-3.89-2.246v-1.486zm-1.297 30.492l-3.89-2.245V68.34l3.89 2.246v1.486zm0-2.974l-3.89-2.246v-1.486l3.89 2.246V69.1zm0-2.975l-3.89-2.246v-1.49l3.89 2.247v1.488zm0-2.977l-3.89-2.245v-1.487l3.89 2.246v1.486zm0-2.976l-3.89-2.245V56.44l3.89 2.246v1.486zm0-2.973l-3.89-2.247v-1.49l3.89 2.246v1.49zm0-2.977l-3.89-2.246V50.49l3.89 2.246v1.487zm0-2.977L85.536 49v-1.487l3.89 2.245v1.488zm0-2.975l-3.89-2.245v-1.488l3.89 2.246v1.488zm0-2.973l-3.89-2.246v-1.488l3.89 2.247v1.487zm0-2.977l-3.89-2.246v-1.486l3.89 2.245v1.487zm0-2.976l-3.89-2.246V35.61l3.89 2.245v1.49zm0-2.975l-3.89-2.247v-1.488l3.89 2.246v1.49zm0-2.976l-3.89-2.246V29.66l3.89 2.246v1.488zm0-2.976l-3.89-2.246v-1.488l3.89 2.246v1.488zm5.185 44.65l-3.888-2.245v-1.487l3.89 2.246v1.486zm-3.887-5.22v-1.486l3.89 2.246v1.486l-3.89-2.246zm0-2.975v-1.488l3.89 2.246v1.49l-3.89-2.247zm3.888-.73L90.723 63.9V62.41l3.89 2.246v1.488zm-3.887-5.222v-1.486l3.89 2.246v1.486l-3.89-2.245zm0-2.973v-1.49l3.89 2.246v1.49l-3.89-2.246zm3.888-.73l-3.888-2.246v-1.485l3.89 2.245v1.487zm-3.887-5.22v-1.49l3.89 2.246v1.488l-3.89-2.244zm3.888-.73l-3.888-2.247v-1.488l3.89 2.246v1.488zm0-2.976l-3.888-2.245v-1.488l3.89 2.246v1.488zm-3.887-8.198v-1.486l3.89 2.245v1.488l-3.89-2.246zm0-4.463l3.89 2.245v1.488l-3.89-2.246V35.63zm0-1.487v-1.488l3.89 2.246v1.49l-3.89-2.247zm3.888-.73l-3.888-2.246V29.68l3.89 2.245v1.488zm5.19 44.65l-3.892-2.245V74.33l3.89 2.246v1.487zm0-2.975l-3.89-2.246-.002-1.486 3.89 2.246v1.486zm0-2.975l-3.892-2.246V68.38l3.89 2.245v1.488zm0-2.975l-3.892-2.245v-1.488l3.89 2.246v1.488zm0-2.978l-3.892-2.245v-1.487l3.89 2.246v1.486zm0-2.972l-3.892-2.246v-1.49l3.89 2.246v1.49zm0-2.977l-3.892-2.245V56.48l3.89 2.244v1.487zm0-2.975l-3.89-2.245-.002-1.488 3.89 2.245v1.488zm0-2.975l-3.892-2.246v-1.488l3.89 2.246v1.488zm0-2.975l-3.892-2.246v-1.49l3.89 2.247v1.488zm0-2.976l-3.892-2.247v-1.486l3.89 2.245v1.487zm0-2.977l-3.892-2.245V41.6l3.89 2.245v1.488zm0-2.976l-3.892-2.245v-1.49l3.89 2.247v1.487zm0-2.974l-3.892-2.246V35.65l3.89 2.245v1.488zm0-2.977l-3.892-2.245v-1.488l3.89 2.246v1.488z"/></g><path clip-path="url(#b)" fill="#FFF" d="M148.495 12.05h1.318v18.815h-1.318z"/><path clip-path="url(#b)" fill="#D8D8D8" d="M149.813 12.05h1.318v18.815h-1.317z"/><path clip-path="url(#b)" fill="#333" d="M176.07 44.625v-18.34l-6.85-3.955v-1.31l-2.816-1.626-2.597-5.933-7.507 1.41-5.346-3.085v.01l-1.142-.66-1.142.66v-.01l-5.38 3.106-7.516-1.41-2.56 5.918-2.81 1.624v1.31l-6.852 3.954v18.34l-1.14.66v45.85l27.397-15.82 27.397 15.82v-45.85l-1.136-.66zm-26.257-15.16l-1.142.66V13.1l1.143-.658 1.142.658v17.022l-1.142-.66z"/><path clip-path="url(#b)" fill="#333" d="M147.53 32.093v-18.34l-4.583 2.647-6.85-1.285-2.266 5.238-2.282 1.317v1.31l-6.85 3.956v18.34l-1.142.658v43.23l1.143-.658 22.83-13.182 1.142-.66v-43.23"/><path clip-path="url(#b)" fill="#FFF" d="M138.397 17.716l2.284-1.32v1.312l2.267-1.308-6.85-1.285"/><g clip-path="url(#b)" fill="#D8D8D8"><path d="M125.84 30.206l1.14-.66v-2.62l-1.14.66M129.265 28.23l1.142-.66v-2.62l-1.143.66M125.84 34.137l1.14-.66v-2.62l-1.14.66M129.265 32.16l1.142-.66v-2.62l-1.143.66M125.84 38.066l1.14-.658v-2.62l-1.14.66M129.265 36.09l1.142-.66v-2.62l-1.142.66M125.84 41.996l1.14-.658v-2.62l-1.14.66M129.264 40.02l1.143-.66v-2.62l-1.143.66M141.823 20.98l1.14-.66V17.7l-1.14.66M145.247 16.382v2.62l1.143-.66v-2.62M141.823 24.91l1.14-.66v-2.62l-1.14.66M145.247 22.932l1.143-.66v-2.62l-1.143.66M141.823 28.84l1.14-.66v-2.62l-1.14.66M145.247 26.862l1.143-.66v-2.62l-1.143.66M141.823 32.77l1.14-.66v-2.62l-1.14.66M145.247 30.792l1.14-.66v-2.62l-1.14.66M141.823 36.7l1.14-.66v-2.62l-1.14.66M145.247 34.722l1.14-.66v-2.62l-1.14.66M141.823 40.63l1.14-.66v-2.62l-1.14.66M145.247 38.652l1.143-.66-.002-2.62-1.14.66"/></g><path clip-path="url(#b)" fill="#D8D8D8" d="M140.68 43.907V17.707l-2.282 1.32v2.62l-4.566 2.636v-2.62l-2.283 1.318v18.34l-7.993 4.613v43.23l25.116-14.5v-35.37l-7.992 4.614zm-6.85-17.004l4.567-2.636v5.24l-4.566 2.636v-5.24zm-4.566 18.357l2.284-1.318v2.62l-2.284 1.317v-2.62zm-4.565 2.636l2.28-1.318v2.62l-2.28 1.317v-2.62zm2.28 32.74l-2.28 1.32v-2.62l2.28-1.318v2.62zm0-7.86l-2.28 1.32v-2.622l2.28-1.318v2.62zm0-7.858l-2.28 1.317v-2.62l2.28-1.318v2.62zm0-7.86l-2.28 1.317v-2.62l2.28-1.317v2.62zM131.55 78l-2.284 1.318v-2.62l2.284-1.317V78zm0-7.86l-2.284 1.32v-2.622l2.284-1.318v2.62zm0-7.86l-2.284 1.32v-2.62l2.284-1.32v2.62zm0-7.86l-2.284 1.318v-2.62l2.284-1.317v2.62zm11.416 16.99l-2.284 1.317v-2.62l2.284-1.318v2.62zm0-7.86l-2.284 1.318v-2.62l2.284-1.318v2.62zm0-7.86l-2.284 1.317v-2.62l2.284-1.317v2.62zm0-7.86l-2.284 1.317v-2.62l2.284-1.317v2.62zm4.567 20.943l-2.283 1.317v-2.62l2.284-1.317v2.62zm0-7.86l-2.283 1.32V59.61l2.284-1.317v2.62zm0-7.86l-2.283 1.318v-2.618l2.284-1.318v2.62zm0-7.86l-2.283 1.317v-2.618l2.284-1.318v2.62z"/><path clip-path="url(#b)" fill="#333" d="M174.928 45.275l.002-18.338-6.85-3.955v-1.31l-2.284-1.32-2.302-5.257-6.848 1.285-4.55-2.626v18.34l-1.14-.66v43.23l1.14.66 22.832 13.182 1.143.66v-43.23"/><path clip-path="url(#b)" fill="#D8D8D8" d="M158.947 16.398l2.282 1.32 2.264-2.623-6.848 1.285 2.3 1.33"/><g clip-path="url(#b)" fill="#FFF"><path d="M153.237 18.342l1.143.66v-2.62l-1.14-.66M156.663 20.32l1.14.66v-2.62l-1.14-.66M153.237 22.272l1.143.66v-2.62l-1.14-.66M156.663 24.25l1.14.66v-2.62l-1.14-.66M153.237 26.203l1.143.66v-2.62l-1.143-.66M156.663 28.18l1.14.66v-2.62l-1.14-.66M153.24 30.133l1.14.66v-2.62l-1.14-.66M156.663 32.11l1.14.66v-2.62l-1.14-.66M169.22 27.57l1.143.66v-2.62l-1.143-.66M172.646 26.927v2.62l1.14.66v-2.62M169.22 31.5l1.143.66v-2.62l-1.143-.66M172.646 33.478l1.14.66v-2.62l-1.14-.66M169.22 35.43l1.143.66v-2.62l-1.143-.66M172.646 37.408l1.14.658v-2.62l-1.14-.658M169.222 39.36l1.14.66V37.4l-1.14-.66M172.646 41.338l1.14.66v-2.62l-1.14-.66M153.24 34.063l1.14.66v-2.62l-1.14-.66M156.663 36.04l1.14.66v-2.62l-1.14-.66M153.24 37.993l1.14.66v-2.62l-1.14-.66M156.663 39.97l1.14.66v-2.62l-1.14-.66"/></g><path clip-path="url(#b)" fill="#FFF" d="M168.08 41.32V22.983l-2.284-1.318v2.62l-4.566-2.636v-2.62l-2.282-1.318V43.91l-7.992-4.614v35.37l25.116 14.5v-43.23l-7.993-4.615zm-13.7 28.77l-2.284-1.316v-2.62l2.284 1.32v2.617zm0-7.858l-2.284-1.318v-2.62l2.284 1.318v2.62zm0-7.86l-2.284-1.32v-2.617l2.284 1.318v2.618zm0-7.86l-2.284-1.318v-2.62l2.284 1.32v2.618zm4.567 26.216l-2.284-1.318v-2.618l2.284 1.318v2.618zm0-7.86l-2.284-1.317v-2.62l2.284 1.318v2.62zm0-7.86l-2.284-1.318v-2.618l2.284 1.318v2.618zm0-7.86l-2.284-1.318v-2.62l2.284 1.318v2.62zm11.416 30.17L168.08 78v-2.618l2.283 1.318v2.618zm0-7.86l-2.284-1.317v-2.618l2.283 1.318v2.62zm0-7.858l-2.284-1.318v-2.62l2.283 1.32V63.6zm0-7.862l-2.284-1.318v-2.618l2.283 1.318v2.618zm4.567 26.217l-2.284-1.318V78.02l2.282 1.317.002 2.618zm0-7.86l-2.284-1.317v-2.62l2.282 1.32.002 2.618zm0-7.86l-2.284-1.317v-2.62l2.282 1.32.002 2.617zm0-7.86l-2.284-1.318V54.44l2.282 1.317.002 2.618zm-2.284-11.797l2.284 1.318v2.62l-2.284-1.32V46.58zm-4.567-2.637l2.283 1.32v2.62l-2.284-1.318v-2.62zm-6.85-19.673l4.565 2.636v5.24l-4.566-2.636v-5.24z"/><g clip-path="url(#b)"><path fill="#333" d="M232.48 76.396V36.672l3.192 1.844v-1.42l3.19 1.843v-1.42l7.45 4.3v1.418l3.192 1.844.002 1.42 3.19 1.842V88.07"/><path fill="#FFF" d="M248.44 47.305v-1.418l-3.19-1.842-.002-1.42-5.32-3.072v1.42l-3.192-1.844v1.417l-3.19-1.842-.003 36.89 18.09 10.442v-36.89"/><g fill="#333"><path d="M235.672 44.19l2.128 1.228V42.58l-2.128-1.228M247.377 48.11v2.837l2.127 1.23.002-2.84M235.672 48.445l2.13 1.23v-2.837l-2.13-1.23M247.377 55.203l2.13 1.23v-2.837l-2.13-1.23M235.672 52.703l2.13 1.23-.002-2.84-2.128-1.228M247.377 59.46l2.13 1.23-.003-2.838-2.127-1.23M235.672 56.96l2.128 1.228V55.35l-2.128-1.23M247.377 63.717l2.127 1.228.002-2.838-2.13-1.228M235.672 61.215l2.13 1.228-.002-2.838-2.128-1.228M247.377 67.973l2.13 1.228-.003-2.837-2.127-1.228M235.672 65.473l2.13 1.228v-2.84l-2.13-1.227M247.377 72.23l2.13 1.23-.003-2.84-2.127-1.23M235.672 69.727l2.13 1.228V68.12l-2.13-1.23M247.377 76.484l2.127 1.23.002-2.837-2.13-1.23M235.672 73.984l2.13 1.23-.002-2.84-2.128-1.228M247.377 80.742l2.13 1.23-.003-2.84-2.127-1.228"/></g><path fill="#333" d="M218.646 54.678l-7.45-4.3v-4.26l7.45 4.304"/><g><path fill="#333" d="M197.364 96.672V56.945l8.513-4.914v-2.84l5.32-3.07v2.84L232.48 36.67v39.726"/><path fill="#D8D8D8" d="M210.134 50.992v-2.838l-3.193 1.844v2.836l-8.51 4.916v36.887l32.985-19.045V38.705"/><g fill="#333"><path d="M200.557 60.777l6.384-3.685v-4.258l-6.383 3.687M210.134 50.992v4.256l19.153-11.06v-4.254M208.005 56.477l1.065-.614v-2.84l-1.065.616M208.005 60.732l1.065-.615V57.28l-1.065.616M208.006 64.99l1.064-.615v-2.838l-1.064.613M208.005 69.244l1.065-.613v-2.837l-1.065.615M208.005 73.502l1.065-.615V70.05l-1.065.614M208.005 77.758l1.065-.613v-2.84l-1.065.615M208.006 82.014l1.064-.616v-2.835l-1.064.615M208.005 86.27l1.064-.614V82.82l-1.065.614M200.557 65.033l1.064-.615v-2.836l-1.063.613M200.557 69.29l1.064-.614v-2.84l-1.063.615M200.557 73.545l1.064-.615v-2.836l-1.063.615M200.557 77.803l1.064-.615v-2.836l-1.063.613M200.557 82.06l1.064-.615v-2.84l-1.063.616M200.557 86.314l1.064-.615v-2.837l-1.063.614M200.557 90.57l1.064-.613V87.12l-1.063.614M228.223 49.06l1.063-.615V45.61l-1.063.613M228.223 53.316l1.064-.613v-2.838l-1.064.615M228.223 57.572l1.064-.615V54.12l-1.064.614M228.223 61.828l1.064-.613V58.38l-1.064.612M228.223 66.086l1.064-.613v-2.84l-1.064.615M228.223 70.342l1.064-.615V66.89l-1.064.614M228.223 74.598l1.064-.614v-2.838l-1.064.616M203.75 63.19l2.127-1.23v-2.835l-2.127 1.23M203.75 67.447l2.127-1.228v-2.84l-2.127 1.227M203.75 71.7l2.127-1.227v-2.836l-2.127 1.228M203.75 75.96l2.127-1.23v-2.835l-2.127 1.228M203.75 80.217l2.127-1.23v-2.84l-2.127 1.23M203.75 84.47l2.127-1.228v-2.836l-2.127 1.23M203.75 88.73l2.127-1.23v-2.838l-2.127 1.23M211.197 58.89l2.13-1.23v-2.836l-2.13 1.23M211.197 63.146l2.13-1.228v-2.84l-2.128 1.23M211.197 67.4l2.13-1.228v-2.836l-2.13 1.228M211.197 71.658l2.13-1.228v-2.836l-2.13 1.228M211.197 75.916l2.13-1.228v-2.84l-2.13 1.228M211.197 80.17l2.13-1.23v-2.835l-2.128 1.23M211.197 84.428l2.13-1.23v-2.835l-2.13 1.23M215.455 56.432l2.126-1.23.002-2.835-2.127 1.23M215.455 60.69l2.127-1.23v-2.84l-2.127 1.23M215.454 64.943l2.127-1.228.002-2.836-2.128 1.227M215.454 69.2l2.128-1.227v-2.836l-2.127 1.228M215.455 73.46l2.127-1.23v-2.84l-2.127 1.23M215.455 77.713l2.127-1.23V73.65l-2.127 1.23M215.454 81.97l2.127-1.228.002-2.838-2.128 1.23M219.71 53.975l2.128-1.23V49.91l-2.128 1.23M219.71 58.232l2.128-1.228v-2.84l-2.128 1.23M219.71 62.486l2.128-1.228v-2.836l-2.127 1.228M219.71 66.744l2.13-1.228-.002-2.838-2.128 1.228M219.71 71l2.128-1.23v-2.836l-2.128 1.228M219.71 75.256l2.128-1.23v-2.835l-2.128 1.23M219.71 79.514l2.128-1.23v-2.837l-2.128 1.23M223.966 51.518l2.13-1.23v-2.837l-2.13 1.23M223.967 55.773l2.13-1.228-.002-2.838-2.128 1.23M223.967 60.03l2.128-1.23v-2.837l-2.128 1.23M223.967 64.287l2.13-1.23-.002-2.836-2.128 1.23M223.967 68.543l2.128-1.23v-2.836l-2.13 1.228M223.967 72.8l2.128-1.23v-2.838l-2.128 1.23M223.967 77.055l2.128-1.23V72.99l-2.128 1.23"/></g></g></g></svg>