<svg xmlns="http://www.w3.org/2000/svg" width="300" height="75" viewBox="0 0 300 75"><path class="st0" d="M300 56.443l-39.507-8.03-46.38-30.137-30.92 28.767-49.707-18.787-35.81 20.157L41.51 12.21 0 46.34V75h300V56.443zM51.1 40.39l-12.33-8.22-4.5 8.22-4.11-7.44-13.11 4.55 24.46-22.16 23.68 17.416L48.945 30.8l2.154 9.59zm93.147-1.176l-3.914 3.914-5.675-2.74-3.327 4.11-4.89-4.11-13.308 2.35 20.156-11.742 23.68 8.415-12.72-.196zm76.712-6.653l-2.74 4.94-5.284-4.157-2.74 4.157-2.543-2.982-7.828 2.982 14.09-15.31 17.81 11.545-10.766-1.174z" fill="#FFF"/><circle class="st0" cx="259.706" cy="13.773" r="8.415" fill="#FFF"/></svg>