<svg xmlns="http://www.w3.org/2000/svg" xmlns:xlink="http://www.w3.org/1999/xlink" width="128" height="108" viewBox="0 0 128 108"><defs><path id="a" d="M0 0h128v108H0z"/></defs><clipPath id="b"><use xlink:href="#a" overflow="visible"/></clipPath><g clip-path="url(#b)"><path fill="#2B2B2B" d="M52 14V4c0-.55-.45-1-1-1H33c-.55 0-1 .45-1 1v10c0 .55.45 1 1 1h18c.55 0 1-.45 1-1zM33 9c0-.552.447-1 1-1s1 .448 1 1c0 .553-.447 1-1 1s-1-.447-1-1zm4 5c-.55 0-1-.45-1-1V5c0-.55.45-1 1-1h13c.55 0 1 .45 1 1v8c0 .55-.45 1-1 1H37zM75.5 4C73.016 4 71 6.015 71 8.5s2.016 4.5 4.5 4.5c2.486 0 4.5-2.015 4.5-4.5S77.986 4 75.5 4zM83 3h-2c-.55 0-1-.45-1-1V1c0-.55-.45-1-1-1h-6c-.55 0-1 .45-1 1v1c0 .55-.45 1-1 1h-1c-.55 0-1-.225-1-.5s-.45-.5-1-.5h-1c-.55 0-1 .225-1 .5s-.45.5-1 .5-1 .45-1 1v10c0 .55.45 1 1 1h18c.55 0 1-.45 1-1V4c0-.55-.45-1-1-1zM69.936 13.327c-.1.118-.24.18-.385.18-.11 0-.225-.038-.318-.116-2.58-2.147-1.85-7.21-1.818-7.424.042-.272.292-.462.57-.42.27.04.46.295.42.568-.01.047-.678 4.72 1.47 6.51.21.176.24.49.062.703zM75.5 14c-3.037 0-5.5-2.463-5.5-5.5S72.463 3 75.5 3 81 5.463 81 8.5 78.537 14 75.5 14zM4 11.022v-4c0-.55-.45-1-1-1H0v6h3c.55 0 1-.45 1-1zm15-8h-1c-.55 0-1-.45-1-1s-.45-1-1-1h-6c-.55 0-1 .45-1 1s-.45 1-1 1H1c-.55 0-1 .45-1 1v1h4c.55 0 1 .45 1 1v6c0 .55-.45 1-1 1H0c0 .55.45 1 1 1h18c.55 0 1-.45 1-1v-9c0-.55-.45-1-1-1zm-6 10.5c-2.762 0-5-2.238-5-5 0-2.76 2.238-5 5-5s5 2.24 5 5c0 2.762-2.238 5-5 5zm0-9c-2.21 0-4 1.79-4 4s1.79 4 4 4 4-1.79 4-4-1.79-4-4-4zM96 3.022v10h20v-10H96zm19 1V8.81l-5.396-2.722-3.945 3.586-3.65-2.52L97 9.47V4.022h18zM20 41V31c0-.55-.45-1-1-1H1c-.55 0-1 .45-1 1v10c0 .55.45 1 1 1h18c.55 0 1-.45 1-1zM1 36c0-.552.447-1 1-1s1 .448 1 1c0 .553-.447 1-1 1s-1-.447-1-1zm4 5c-.55 0-1-.45-1-1v-8c0-.55.45-1 1-1h13c.55 0 1 .45 1 1v8c0 .55-.45 1-1 1H5zM43.5 31c-2.484 0-4.5 2.015-4.5 4.5s2.016 4.5 4.5 4.5c2.486 0 4.5-2.015 4.5-4.5S45.986 31 43.5 31zm7.5-1h-2c-.55 0-1-.45-1-1v-1c0-.55-.45-1-1-1h-6c-.55 0-1 .45-1 1v1c0 .55-.45 1-1 1h-1c-.55 0-1-.225-1-.5s-.45-.5-1-.5h-1c-.55 0-1 .225-1 .5s-.45.5-1 .5-1 .45-1 1v10c0 .55.45 1 1 1h18c.55 0 1-.45 1-1V31c0-.55-.45-1-1-1zM37.936 40.327c-.1.118-.24.18-.385.18-.11 0-.225-.038-.318-.116-2.58-2.147-1.85-7.21-1.818-7.424.042-.272.292-.462.57-.42.27.04.46.295.42.568-.01.047-.678 4.72 1.47 6.51.21.176.24.49.062.703zM43.5 41c-3.037 0-5.5-2.463-5.5-5.5s2.463-5.5 5.5-5.5 5.5 2.463 5.5 5.5-2.463 5.5-5.5 5.5zM64 30.022v10h20v-10H64zm19 1v4.787l-5.396-2.722-3.945 3.586-3.65-2.52L65 36.47v-5.448h18zM100 38.022v-4c0-.55-.45-1-1-1h-3v6h3c.55 0 1-.45 1-1zm15-8h-1c-.55 0-1-.45-1-1s-.45-1-1-1h-6c-.55 0-1 .45-1 1s-.45 1-1 1h-7c-.55 0-1 .45-1 1v1h4c.55 0 1 .45 1 1v6c0 .55-.45 1-1 1h-4c0 .55.45 1 1 1h18c.55 0 1-.45 1-1v-9c0-.55-.45-1-1-1zm-6 10.5c-2.762 0-5-2.238-5-5 0-2.76 2.238-5 5-5s5 2.24 5 5c0 2.762-2.238 5-5 5zm0-9c-2.21 0-4 1.79-4 4s1.79 4 4 4 4-1.79 4-4-1.79-4-4-4zM19 57h-2c-.55 0-1-.45-1-1v-1c0-.55-.45-1-1-1H9c-.55 0-1 .45-1 1v1c0 .55-.45 1-1 1H6c-.55 0-1-.225-1-.5s-.45-.5-1-.5H3c-.55 0-1 .225-1 .5s-.45.5-1 .5-1 .45-1 1v10c0 .55.45 1 1 1h18c.55 0 1-.45 1-1V58c0-.55-.45-1-1-1zM5.936 67.326c-.1.12-.24.18-.385.18-.11 0-.225-.037-.318-.115-2.58-2.147-1.85-7.21-1.818-7.425.042-.27.292-.46.57-.42.27.04.46.297.42.568-.01.047-.678 4.72 1.47 6.51.21.176.24.492.062.703zM11.5 68C8.463 68 6 65.537 6 62.5S8.463 57 11.5 57s5.5 2.463 5.5 5.5-2.462 5.5-5.5 5.5zm0-10C9.016 58 7 60.016 7 62.5S9.016 67 11.5 67c2.486 0 4.5-2.016 4.5-4.5S13.987 58 11.5 58zM32 57.02v10h20v-10H32zm19 1v4.788l-5.396-2.72-3.945 3.585-3.65-2.52L33 63.47v-5.448h18zM116 68V58c0-.55-.45-1-1-1H97c-.55 0-1 .45-1 1v10c0 .55.45 1 1 1h18c.55 0 1-.45 1-1zm-19-5c0-.553.447-1 1-1s1 .447 1 1-.447 1-1 1-1-.447-1-1zm4 5c-.55 0-1-.45-1-1v-8c0-.55.45-1 1-1h13c.55 0 1 .45 1 1v8c0 .55-.45 1-1 1h-13zM68 65.02v-4c0-.548-.45-1-1-1h-3v6h3c.55 0 1-.448 1-1zm15-8h-1c-.55 0-1-.448-1-1 0-.548-.45-1-1-1h-6c-.55 0-1 .452-1 1 0 .552-.45 1-1 1h-7c-.55 0-1 .452-1 1v1h4c.55 0 1 .452 1 1v6c0 .552-.45 1-1 1h-4c0 .552.45 1 1 1h18c.55 0 1-.448 1-1v-9c0-.547-.45-1-1-1zm-6 10.5c-2.762 0-5-2.237-5-5s2.238-5 5-5 5 2.24 5 5-2.238 5-5 5zm0-9c-2.21 0-4 1.792-4 4s1.79 4 4 4 4-1.79 4-4-1.79-4-4-4zM0 84.02v10h20v-10H0zm19 1v4.788l-5.396-2.72-3.945 3.585-3.65-2.52L1 90.47v-5.448h18zM84 95V85c0-.55-.45-1-1-1H65c-.55 0-1 .45-1 1v10c0 .55.45 1 1 1h18c.55 0 1-.45 1-1zm-19-5c0-.553.447-1 1-1s1 .447 1 1-.447 1-1 1-1-.447-1-1zm4 5c-.55 0-1-.45-1-1v-8c0-.55.45-1 1-1h13c.55 0 1 .45 1 1v8c0 .55-.45 1-1 1H69zM115 84h-2c-.55 0-1-.45-1-1v-1c0-.55-.45-1-1-1h-6c-.55 0-1 .45-1 1v1c0 .55-.45 1-1 1h-1c-.55 0-1-.225-1-.5s-.45-.5-1-.5h-1c-.55 0-1 .225-1 .5s-.45.5-1 .5-1 .45-1 1v10c0 .55.45 1 1 1h18c.55 0 1-.45 1-1V85c0-.55-.45-1-1-1zm-13.064 10.326c-.1.12-.24.18-.385.18-.112 0-.226-.037-.32-.115-2.577-2.147-1.85-7.21-1.817-7.425.043-.27.293-.46.57-.42.27.04.46.297.42.568-.008.047-.678 4.72 1.47 6.51.21.176.24.492.063.703zM107.5 95c-3.037 0-5.5-2.463-5.5-5.5s2.463-5.5 5.5-5.5 5.5 2.463 5.5 5.5-2.463 5.5-5.5 5.5zm0-10c-2.484 0-4.5 2.016-4.5 4.5s2.016 4.5 4.5 4.5c2.486 0 4.5-2.016 4.5-4.5s-2.014-4.5-4.5-4.5zM36 92.02v-4c0-.548-.45-1-1-1h-3v6h3c.55 0 1-.448 1-1zm15-8h-1c-.55 0-1-.448-1-1 0-.548-.45-1-1-1h-6c-.55 0-1 .452-1 1 0 .552-.45 1-1 1h-7c-.55 0-1 .452-1 1v1h4c.55 0 1 .452 1 1v6c0 .552-.45 1-1 1h-4c0 .552.45 1 1 1h18c.55 0 1-.448 1-1v-9c0-.547-.45-1-1-1zm-6 10.5c-2.762 0-5-2.237-5-5s2.238-5 5-5 5 2.24 5 5-2.238 5-5 5zm0-9c-2.21 0-4 1.792-4 4s1.79 4 4 4 4-1.79 4-4-1.79-4-4-4z"/></g></svg>